<?xml version="1.0" encoding="UTF-8" standalone="no"?>
<!DOCTYPE svg PUBLIC "-//W3C//DTD SVG 1.1//EN"
 "http://www.w3.org/Graphics/SVG/1.1/DTD/svg11.dtd">
<!-- Generated by graphviz version 2.43.0 (0)
 -->
<!-- Title: TradingEcosystemWorkflow Pages: 1 -->
<svg width="987pt" height="4777pt"
 viewBox="0.00 0.00 987.00 4777.00" xmlns="http://www.w3.org/2000/svg" xmlns:xlink="http://www.w3.org/1999/xlink">
<g id="graph0" class="graph" transform="scale(1 1) rotate(0) translate(4 4773)">
<title>TradingEcosystemWorkflow</title>
<polygon fill="white" stroke="transparent" points="-4,4 -4,-4773 983,-4773 983,4 -4,4"/>
<g id="clust1" class="cluster">
<title>cluster_config</title>
<polygon fill="none" stroke="black" stroke-dasharray="5,2" points="124,-4423 124,-4650 316,-4650 316,-4423 124,-4423"/>
<text text-anchor="middle" x="220" y="-4634.8" font-family="Times,serif" font-size="14.00">Load Configuration</text>
</g>
<g id="clust2" class="cluster">
<title>cluster_brainstorm</title>
<polygon fill="none" stroke="black" stroke-dasharray="5,2" points="298,-3926 298,-4242 461,-4242 461,-3926 298,-3926"/>
<text text-anchor="middle" x="379.5" y="-4226.8" font-family="Times,serif" font-size="14.00">Epic Planning (New)</text>
</g>
<g id="clust3" class="cluster">
<title>cluster_repo_planning</title>
<polygon fill="none" stroke="black" stroke-dasharray="5,2" points="141,-3478 141,-3832 341,-3832 341,-3478 141,-3478"/>
<text text-anchor="middle" x="241" y="-3816.8" font-family="Times,serif" font-size="14.00">Multi&#45;Repo Planning</text>
</g>
<g id="clust4" class="cluster">
<title>cluster_git</title>
<polygon fill="none" stroke="black" stroke-dasharray="5,2" points="231,-3105 231,-3459 461,-3459 461,-3105 231,-3105"/>
<text text-anchor="middle" x="346" y="-3443.8" font-family="Times,serif" font-size="14.00">Git Branch Management</text>
</g>
<g id="clust5" class="cluster">
<title>cluster_todo_updates</title>
<polygon fill="none" stroke="black" stroke-dasharray="5,2" points="283,-2859 283,-3086 468,-3086 468,-2859 283,-2859"/>
<text text-anchor="middle" x="375.5" y="-3070.8" font-family="Times,serif" font-size="14.00">Task Planning per Repo</text>
</g>
<g id="clust6" class="cluster">
<title>cluster_interface</title>
<polygon fill="none" stroke="black" stroke-dasharray="5,2" points="222,-2473 222,-2713 776,-2713 776,-2473 222,-2473"/>
<text text-anchor="middle" x="499" y="-2697.8" font-family="Times,serif" font-size="14.00">Public Interface Design</text>
</g>
<g id="clust7" class="cluster">
<title>cluster_deployment</title>
<polygon fill="none" stroke="black" stroke-dasharray="5,2" points="26,-3009 26,-3459 223,-3459 223,-3009 26,-3009"/>
<text text-anchor="middle" x="124.5" y="-3443.8" font-family="Times,serif" font-size="14.00">New Service Deployment</text>
</g>
<g id="clust8" class="cluster">
<title>cluster_implementation</title>
<polygon fill="none" stroke="black" stroke-dasharray="5,2" points="79,-2079 79,-2379 425,-2379 425,-2079 79,-2079"/>
<text text-anchor="middle" x="252" y="-2363.8" font-family="Times,serif" font-size="14.00">Implementation</text>
</g>
<g id="clust9" class="cluster">
<title>cluster_refactor</title>
<polygon fill="none" stroke="black" stroke-dasharray="5,2" points="8,-1610 8,-1933 196,-1933 196,-1610 8,-1610"/>
<text text-anchor="middle" x="102" y="-1917.8" font-family="Times,serif" font-size="14.00">Refactoring Phase</text>
</g>
<g id="clust10" class="cluster">
<title>cluster_security</title>
<polygon fill="none" stroke="black" stroke-dasharray="5,2" points="19,-1184 19,-1591 216,-1591 216,-1184 19,-1184"/>
<text text-anchor="middle" x="117.5" y="-1575.8" font-family="Times,serif" font-size="14.00">Security &amp; Cross&#45;Cutting</text>
</g>
<g id="clust11" class="cluster">
<title>cluster_docs</title>
<polygon fill="none" stroke="black" stroke-dasharray="5,2" points="37,-863 37,-1165 197,-1165 197,-863 37,-863"/>
<text text-anchor="middle" x="117" y="-1149.8" font-family="Times,serif" font-size="14.00">Documentation</text>
</g>
<g id="clust12" class="cluster">
<title>cluster_final</title>
<polygon fill="none" stroke="black" stroke-dasharray="5,2" points="112,-565 112,-844 330,-844 330,-565 112,-565"/>
<text text-anchor="middle" x="221" y="-828.8" font-family="Times,serif" font-size="14.00">Final Verification</text>
</g>
<g id="clust13" class="cluster">
<title>cluster_pr</title>
<polygon fill="none" stroke="black" stroke-dasharray="5,2" points="135,-215 135,-532 308,-532 308,-215 135,-215"/>
<text text-anchor="middle" x="221.5" y="-516.8" font-family="Times,serif" font-size="14.00">Pull Request Creation</text>
</g>
<g id="clust14" class="cluster">
<title>cluster_parallel</title>
<polygon fill="none" stroke="black" stroke-dasharray="1,5" points="293,-4669 293,-4761 455,-4761 455,-4669 293,-4669"/>
<text text-anchor="middle" x="374" y="-4745.8" font-family="Times,serif" font-size="14.00">Parallel Work Notes</text>
</g>
<g id="clust15" class="cluster">
<title>cluster_legend</title>
<polygon fill="none" stroke="black" points="463,-4677.5 463,-4752.5 971,-4752.5 971,-4677.5 463,-4677.5"/>
<text text-anchor="middle" x="717" y="-4737.3" font-family="Times,serif" font-size="14.00">Legend</text>
</g>
<!-- start -->
<g id="node1" class="node">
<title>start</title>
<ellipse fill="lightgreen" stroke="black" cx="220" cy="-4703.5" rx="63.09" ry="18"/>
<text text-anchor="middle" x="220" y="-4699.8" font-family="Arial" font-size="14.00">Start Session</text>
</g>
<!-- load_global -->
<g id="node2" class="node">
<title>load_global</title>
<path fill="lightblue" stroke="black" d="M270.5,-4619C270.5,-4619 169.5,-4619 169.5,-4619 163.5,-4619 157.5,-4613 157.5,-4607 157.5,-4607 157.5,-4593 157.5,-4593 157.5,-4587 163.5,-4581 169.5,-4581 169.5,-4581 270.5,-4581 270.5,-4581 276.5,-4581 282.5,-4587 282.5,-4593 282.5,-4593 282.5,-4607 282.5,-4607 282.5,-4613 276.5,-4619 270.5,-4619"/>
<text text-anchor="middle" x="220" y="-4603.8" font-family="Arial" font-size="14.00">Load Global Skills</text>
<text text-anchor="middle" x="220" y="-4588.8" font-family="Arial" font-size="14.00">~/.claude/skills</text>
</g>
<!-- start&#45;&gt;load_global -->
<g id="edge3" class="edge">
<title>start&#45;&gt;load_global</title>
<path fill="none" stroke="black" d="M220,-4685.28C220,-4670.03 220,-4647.48 220,-4629.54"/>
<polygon fill="black" stroke="black" points="223.5,-4629.33 220,-4619.33 216.5,-4629.33 223.5,-4629.33"/>
</g>
<!-- load_local -->
<g id="node3" class="node">
<title>load_local</title>
<path fill="lightblue" stroke="black" d="M281,-4544C281,-4544 159,-4544 159,-4544 153,-4544 147,-4538 147,-4532 147,-4532 147,-4518 147,-4518 147,-4512 153,-4506 159,-4506 159,-4506 281,-4506 281,-4506 287,-4506 293,-4512 293,-4518 293,-4518 293,-4532 293,-4532 293,-4538 287,-4544 281,-4544"/>
<text text-anchor="middle" x="220" y="-4528.8" font-family="Arial" font-size="14.00">Load Local Config</text>
<text text-anchor="middle" x="220" y="-4513.8" font-family="Arial" font-size="14.00">./project&#45;plan/.claude/</text>
</g>
<!-- load_global&#45;&gt;load_local -->
<g id="edge1" class="edge">
<title>load_global&#45;&gt;load_local</title>
<path fill="none" stroke="black" d="M220,-4580.96C220,-4572.88 220,-4563.18 220,-4554.18"/>
<polygon fill="black" stroke="black" points="223.5,-4554.09 220,-4544.09 216.5,-4554.09 223.5,-4554.09"/>
</g>
<!-- load_master_todo -->
<g id="node4" class="node">
<title>load_master_todo</title>
<path fill="lightblue" stroke="black" d="M296,-4469C296,-4469 144,-4469 144,-4469 138,-4469 132,-4463 132,-4457 132,-4457 132,-4443 132,-4443 132,-4437 138,-4431 144,-4431 144,-4431 296,-4431 296,-4431 302,-4431 308,-4437 308,-4443 308,-4443 308,-4457 308,-4457 308,-4463 302,-4469 296,-4469"/>
<text text-anchor="middle" x="220" y="-4453.8" font-family="Arial" font-size="14.00">Load TODO&#45;MASTER.md</text>
<text text-anchor="middle" x="220" y="-4438.8" font-family="Arial" font-size="14.00">Assess Project State</text>
</g>
<!-- load_local&#45;&gt;load_master_todo -->
<g id="edge2" class="edge">
<title>load_local&#45;&gt;load_master_todo</title>
<path fill="none" stroke="black" d="M220,-4505.96C220,-4497.88 220,-4488.18 220,-4479.18"/>
<polygon fill="black" stroke="black" points="223.5,-4479.09 220,-4469.09 216.5,-4479.09 223.5,-4479.09"/>
</g>
<!-- assess_state -->
<g id="node5" class="node">
<title>assess_state</title>
<path fill="lightyellow" stroke="black" d="M208.14,-4392.14C208.14,-4392.14 117.07,-4377.86 117.07,-4377.86 111.14,-4376.93 111.14,-4375.07 117.07,-4374.14 117.07,-4374.14 208.14,-4359.86 208.14,-4359.86 214.07,-4358.93 225.93,-4358.93 231.86,-4359.86 231.86,-4359.86 322.93,-4374.14 322.93,-4374.14 328.86,-4375.07 328.86,-4376.93 322.93,-4377.86 322.93,-4377.86 231.86,-4392.14 231.86,-4392.14 225.93,-4393.07 214.07,-4393.07 208.14,-4392.14"/>
<text text-anchor="middle" x="220" y="-4372.3" font-family="Arial" font-size="14.00">Assess Epic State</text>
</g>
<!-- load_master_todo&#45;&gt;assess_state -->
<g id="edge4" class="edge">
<title>load_master_todo&#45;&gt;assess_state</title>
<path fill="none" stroke="black" d="M220,-4430.83C220,-4422.89 220,-4413.41 220,-4404.63"/>
<polygon fill="black" stroke="black" points="223.5,-4404.42 220,-4394.42 216.5,-4404.42 223.5,-4404.42"/>
</g>
<!-- mid_epic -->
<g id="node6" class="node">
<title>mid_epic</title>
<path fill="lightblue" stroke="black" d="M163.5,-3972C163.5,-3972 86.5,-3972 86.5,-3972 80.5,-3972 74.5,-3966 74.5,-3960 74.5,-3960 74.5,-3946 74.5,-3946 74.5,-3940 80.5,-3934 86.5,-3934 86.5,-3934 163.5,-3934 163.5,-3934 169.5,-3934 175.5,-3940 175.5,-3946 175.5,-3946 175.5,-3960 175.5,-3960 175.5,-3966 169.5,-3972 163.5,-3972"/>
<text text-anchor="middle" x="125" y="-3956.8" font-family="Arial" font-size="14.00">Mid&#45;Epic</text>
<text text-anchor="middle" x="125" y="-3941.8" font-family="Arial" font-size="14.00">Continue WIP</text>
</g>
<!-- assess_state&#45;&gt;mid_epic -->
<g id="edge5" class="edge">
<title>assess_state&#45;&gt;mid_epic</title>
<path fill="none" stroke="black" d="M190,-4362.59C162.49,-4348.98 126,-4324.28 126,-4289 126,-4289 126,-4289 126,-4027 126,-4012.3 125.79,-3995.93 125.57,-3982.43"/>
<polygon fill="black" stroke="black" points="129.07,-3982.24 125.39,-3972.3 122.07,-3982.36 129.07,-3982.24"/>
<text text-anchor="middle" x="161" y="-4143.8" font-family="Arial" font-size="14.00">In Progress</text>
</g>
<!-- ready_epic -->
<g id="node7" class="node">
<title>ready_epic</title>
<path fill="lightblue" stroke="black" d="M276,-3972C276,-3972 206,-3972 206,-3972 200,-3972 194,-3966 194,-3960 194,-3960 194,-3946 194,-3946 194,-3940 200,-3934 206,-3934 206,-3934 276,-3934 276,-3934 282,-3934 288,-3940 288,-3946 288,-3946 288,-3960 288,-3960 288,-3966 282,-3972 276,-3972"/>
<text text-anchor="middle" x="241" y="-3956.8" font-family="Arial" font-size="14.00">Ready for</text>
<text text-anchor="middle" x="241" y="-3941.8" font-family="Arial" font-size="14.00">Existing Epic</text>
</g>
<!-- assess_state&#45;&gt;ready_epic -->
<g id="edge6" class="edge">
<title>assess_state&#45;&gt;ready_epic</title>
<path fill="none" stroke="black" d="M220,-4357.87C220,-4340.51 220,-4312.89 220,-4289 220,-4289 220,-4289 220,-4027 220,-4011.66 224.34,-3995.18 229.07,-3981.77"/>
<polygon fill="black" stroke="black" points="232.43,-3982.78 232.7,-3972.19 225.89,-3980.3 232.43,-3982.78"/>
<text text-anchor="middle" x="255" y="-4143.8" font-family="Arial" font-size="14.00">Epic Ready</text>
</g>
<!-- new_epic -->
<g id="node8" class="node">
<title>new_epic</title>
<path fill="lightblue" stroke="black" d="M355.5,-4307C355.5,-4307 296.5,-4307 296.5,-4307 290.5,-4307 284.5,-4301 284.5,-4295 284.5,-4295 284.5,-4281 284.5,-4281 284.5,-4275 290.5,-4269 296.5,-4269 296.5,-4269 355.5,-4269 355.5,-4269 361.5,-4269 367.5,-4275 367.5,-4281 367.5,-4281 367.5,-4295 367.5,-4295 367.5,-4301 361.5,-4307 355.5,-4307"/>
<text text-anchor="middle" x="326" y="-4291.8" font-family="Arial" font-size="14.00">Brainstorm</text>
<text text-anchor="middle" x="326" y="-4276.8" font-family="Arial" font-size="14.00">New Epic</text>
</g>
<!-- assess_state&#45;&gt;new_epic -->
<g id="edge7" class="edge">
<title>assess_state&#45;&gt;new_epic</title>
<path fill="none" stroke="black" d="M237.98,-4360.41C253.73,-4347.64 276.93,-4328.81 295.57,-4313.69"/>
<polygon fill="black" stroke="black" points="297.94,-4316.27 303.5,-4307.26 293.53,-4310.84 297.94,-4316.27"/>
<text text-anchor="middle" x="340.5" y="-4328.8" font-family="Arial" font-size="14.00">Need New Features</text>
</g>
<!-- define_session_outcome -->
<g id="node13" class="node">
<title>define_session_outcome</title>
<path fill="lightcoral" stroke="black" d="M291.5,-3897C291.5,-3897 190.5,-3897 190.5,-3897 184.5,-3897 178.5,-3891 178.5,-3885 178.5,-3885 178.5,-3871 178.5,-3871 178.5,-3865 184.5,-3859 190.5,-3859 190.5,-3859 291.5,-3859 291.5,-3859 297.5,-3859 303.5,-3865 303.5,-3871 303.5,-3871 303.5,-3885 303.5,-3885 303.5,-3891 297.5,-3897 291.5,-3897"/>
<text text-anchor="middle" x="241" y="-3881.8" font-family="Arial" font-size="14.00">Define Today&#39;s</text>
<text text-anchor="middle" x="241" y="-3866.8" font-family="Arial" font-size="14.00">Session Outcome</text>
</g>
<!-- mid_epic&#45;&gt;define_session_outcome -->
<g id="edge12" class="edge">
<title>mid_epic&#45;&gt;define_session_outcome</title>
<path fill="none" stroke="black" d="M153.67,-3933.96C168.73,-3924.48 187.37,-3912.75 203.55,-3902.57"/>
<polygon fill="black" stroke="black" points="205.65,-3905.38 212.25,-3897.09 201.93,-3899.45 205.65,-3905.38"/>
</g>
<!-- ready_epic&#45;&gt;define_session_outcome -->
<g id="edge13" class="edge">
<title>ready_epic&#45;&gt;define_session_outcome</title>
<path fill="none" stroke="black" d="M241,-3933.96C241,-3925.88 241,-3916.18 241,-3907.18"/>
<polygon fill="black" stroke="black" points="244.5,-3907.09 241,-3897.09 237.5,-3907.09 244.5,-3907.09"/>
</g>
<!-- define_features -->
<g id="node9" class="node">
<title>define_features</title>
<path fill="lightblue" stroke="black" d="M414.5,-4211C414.5,-4211 325.5,-4211 325.5,-4211 319.5,-4211 313.5,-4205 313.5,-4199 313.5,-4199 313.5,-4185 313.5,-4185 313.5,-4179 319.5,-4173 325.5,-4173 325.5,-4173 414.5,-4173 414.5,-4173 420.5,-4173 426.5,-4179 426.5,-4185 426.5,-4185 426.5,-4199 426.5,-4199 426.5,-4205 420.5,-4211 414.5,-4211"/>
<text text-anchor="middle" x="370" y="-4195.8" font-family="Arial" font-size="14.00">Define Features</text>
<text text-anchor="middle" x="370" y="-4180.8" font-family="Arial" font-size="14.00">&amp; User Stories</text>
</g>
<!-- new_epic&#45;&gt;define_features -->
<g id="edge11" class="edge">
<title>new_epic&#45;&gt;define_features</title>
<path fill="none" stroke="black" d="M334.48,-4268.88C340.94,-4255.09 349.92,-4235.9 357.24,-4220.26"/>
<polygon fill="black" stroke="black" points="360.47,-4221.61 361.54,-4211.07 354.13,-4218.64 360.47,-4221.61"/>
</g>
<!-- breakdown_tasks -->
<g id="node10" class="node">
<title>breakdown_tasks</title>
<path fill="lightblue" stroke="black" d="M406,-4122C406,-4122 340,-4122 340,-4122 334,-4122 328,-4116 328,-4110 328,-4110 328,-4096 328,-4096 328,-4090 334,-4084 340,-4084 340,-4084 406,-4084 406,-4084 412,-4084 418,-4090 418,-4096 418,-4096 418,-4110 418,-4110 418,-4116 412,-4122 406,-4122"/>
<text text-anchor="middle" x="373" y="-4106.8" font-family="Arial" font-size="14.00">Break Down</text>
<text text-anchor="middle" x="373" y="-4091.8" font-family="Arial" font-size="14.00">into Tasks</text>
</g>
<!-- define_features&#45;&gt;breakdown_tasks -->
<g id="edge8" class="edge">
<title>define_features&#45;&gt;breakdown_tasks</title>
<path fill="none" stroke="black" d="M370.62,-4172.97C371.03,-4161.19 371.57,-4145.56 372.03,-4132.16"/>
<polygon fill="black" stroke="black" points="375.53,-4132.12 372.38,-4122 368.54,-4131.88 375.53,-4132.12"/>
</g>
<!-- identify_repos -->
<g id="node11" class="node">
<title>identify_repos</title>
<path fill="lightblue" stroke="black" d="M419.5,-4047C419.5,-4047 330.5,-4047 330.5,-4047 324.5,-4047 318.5,-4041 318.5,-4035 318.5,-4035 318.5,-4021 318.5,-4021 318.5,-4015 324.5,-4009 330.5,-4009 330.5,-4009 419.5,-4009 419.5,-4009 425.5,-4009 431.5,-4015 431.5,-4021 431.5,-4021 431.5,-4035 431.5,-4035 431.5,-4041 425.5,-4047 419.5,-4047"/>
<text text-anchor="middle" x="375" y="-4031.8" font-family="Arial" font-size="14.00">Identify Affected</text>
<text text-anchor="middle" x="375" y="-4016.8" font-family="Arial" font-size="14.00">Repositories</text>
</g>
<!-- breakdown_tasks&#45;&gt;identify_repos -->
<g id="edge9" class="edge">
<title>breakdown_tasks&#45;&gt;identify_repos</title>
<path fill="none" stroke="black" d="M373.49,-4083.96C373.72,-4075.88 373.98,-4066.18 374.23,-4057.18"/>
<polygon fill="black" stroke="black" points="377.73,-4057.18 374.5,-4047.09 370.73,-4056.99 377.73,-4057.18"/>
</g>
<!-- update_master_todo -->
<g id="node12" class="node">
<title>update_master_todo</title>
<path fill="lightblue" stroke="black" d="M436,-3972C436,-3972 318,-3972 318,-3972 312,-3972 306,-3966 306,-3960 306,-3960 306,-3946 306,-3946 306,-3940 312,-3934 318,-3934 318,-3934 436,-3934 436,-3934 442,-3934 448,-3940 448,-3946 448,-3946 448,-3960 448,-3960 448,-3966 442,-3972 436,-3972"/>
<text text-anchor="middle" x="377" y="-3956.8" font-family="Arial" font-size="14.00">Update</text>
<text text-anchor="middle" x="377" y="-3941.8" font-family="Arial" font-size="14.00">TODO&#45;MASTER.md</text>
</g>
<!-- identify_repos&#45;&gt;update_master_todo -->
<g id="edge10" class="edge">
<title>identify_repos&#45;&gt;update_master_todo</title>
<path fill="none" stroke="black" d="M375.49,-4008.96C375.72,-4000.88 375.98,-3991.18 376.23,-3982.18"/>
<polygon fill="black" stroke="black" points="379.73,-3982.18 376.5,-3972.09 372.73,-3981.99 379.73,-3982.18"/>
</g>
<!-- update_master_todo&#45;&gt;define_session_outcome -->
<g id="edge14" class="edge">
<title>update_master_todo&#45;&gt;define_session_outcome</title>
<path fill="none" stroke="black" d="M343.38,-3933.96C325.32,-3924.26 302.86,-3912.21 283.59,-3901.86"/>
<polygon fill="black" stroke="black" points="285.17,-3898.74 274.7,-3897.09 281.86,-3904.9 285.17,-3898.74"/>
</g>
<!-- identify_components -->
<g id="node14" class="node">
<title>identify_components</title>
<path fill="lightblue" stroke="black" d="M294,-3801C294,-3801 188,-3801 188,-3801 182,-3801 176,-3795 176,-3789 176,-3789 176,-3775 176,-3775 176,-3769 182,-3763 188,-3763 188,-3763 294,-3763 294,-3763 300,-3763 306,-3769 306,-3775 306,-3775 306,-3789 306,-3789 306,-3795 300,-3801 294,-3801"/>
<text text-anchor="middle" x="241" y="-3785.8" font-family="Arial" font-size="14.00">Identify Required</text>
<text text-anchor="middle" x="241" y="-3770.8" font-family="Arial" font-size="14.00">Component Repos</text>
</g>
<!-- define_session_outcome&#45;&gt;identify_components -->
<g id="edge18" class="edge">
<title>define_session_outcome&#45;&gt;identify_components</title>
<path fill="none" stroke="black" d="M241,-3858.88C241,-3845.35 241,-3826.62 241,-3811.15"/>
<polygon fill="black" stroke="black" points="244.5,-3811.07 241,-3801.07 237.5,-3811.07 244.5,-3811.07"/>
</g>
<!-- analyze_dependencies -->
<g id="node15" class="node">
<title>analyze_dependencies</title>
<path fill="lightblue" stroke="black" d="M300.5,-3726C300.5,-3726 181.5,-3726 181.5,-3726 175.5,-3726 169.5,-3720 169.5,-3714 169.5,-3714 169.5,-3700 169.5,-3700 169.5,-3694 175.5,-3688 181.5,-3688 181.5,-3688 300.5,-3688 300.5,-3688 306.5,-3688 312.5,-3694 312.5,-3700 312.5,-3700 312.5,-3714 312.5,-3714 312.5,-3720 306.5,-3726 300.5,-3726"/>
<text text-anchor="middle" x="241" y="-3710.8" font-family="Arial" font-size="14.00">Analyze</text>
<text text-anchor="middle" x="241" y="-3695.8" font-family="Arial" font-size="14.00">Cross&#45;Dependencies</text>
</g>
<!-- identify_components&#45;&gt;analyze_dependencies -->
<g id="edge15" class="edge">
<title>identify_components&#45;&gt;analyze_dependencies</title>
<path fill="none" stroke="black" d="M241,-3762.96C241,-3754.88 241,-3745.18 241,-3736.18"/>
<polygon fill="black" stroke="black" points="244.5,-3736.09 241,-3726.09 237.5,-3736.09 244.5,-3736.09"/>
</g>
<!-- new_service_needed -->
<g id="node16" class="node">
<title>new_service_needed</title>
<path fill="lightblue" stroke="black" d="M229.91,-3646.42C229.91,-3646.42 160.09,-3617.58 160.09,-3617.58 154.55,-3615.29 154.55,-3610.71 160.09,-3608.42 160.09,-3608.42 229.91,-3579.58 229.91,-3579.58 235.45,-3577.29 246.55,-3577.29 252.09,-3579.58 252.09,-3579.58 321.91,-3608.42 321.91,-3608.42 327.45,-3610.71 327.45,-3615.29 321.91,-3617.58 321.91,-3617.58 252.09,-3646.42 252.09,-3646.42 246.55,-3648.71 235.45,-3648.71 229.91,-3646.42"/>
<text text-anchor="middle" x="241" y="-3616.8" font-family="Arial" font-size="14.00">New Service</text>
<text text-anchor="middle" x="241" y="-3601.8" font-family="Arial" font-size="14.00">Needed?</text>
</g>
<!-- analyze_dependencies&#45;&gt;new_service_needed -->
<g id="edge16" class="edge">
<title>analyze_dependencies&#45;&gt;new_service_needed</title>
<path fill="none" stroke="black" d="M241,-3687.82C241,-3680.13 241,-3670.78 241,-3661.35"/>
<polygon fill="black" stroke="black" points="244.5,-3661.16 241,-3651.16 237.5,-3661.16 244.5,-3661.16"/>
</g>
<!-- plan_service -->
<g id="node17" class="node">
<title>plan_service</title>
<path fill="lightblue" stroke="black" d="M275.5,-3524C275.5,-3524 176.5,-3524 176.5,-3524 170.5,-3524 164.5,-3518 164.5,-3512 164.5,-3512 164.5,-3498 164.5,-3498 164.5,-3492 170.5,-3486 176.5,-3486 176.5,-3486 275.5,-3486 275.5,-3486 281.5,-3486 287.5,-3492 287.5,-3498 287.5,-3498 287.5,-3512 287.5,-3512 287.5,-3518 281.5,-3524 275.5,-3524"/>
<text text-anchor="middle" x="226" y="-3508.8" font-family="Arial" font-size="14.00">Plan New Service</text>
<text text-anchor="middle" x="226" y="-3493.8" font-family="Arial" font-size="14.00">Architecture</text>
</g>
<!-- new_service_needed&#45;&gt;plan_service -->
<g id="edge17" class="edge">
<title>new_service_needed&#45;&gt;plan_service</title>
<path fill="none" stroke="black" d="M236.05,-3577C234.07,-3563.01 231.82,-3547.12 229.95,-3533.93"/>
<polygon fill="black" stroke="black" points="233.42,-3533.42 228.55,-3524.01 226.48,-3534.4 233.42,-3533.42"/>
<text text-anchor="middle" x="245.5" y="-3545.8" font-family="Arial" font-size="14.00">Yes</text>
</g>
<!-- check_branches -->
<g id="node18" class="node">
<title>check_branches</title>
<path fill="lightblue" stroke="black" d="M376,-3428C376,-3428 272,-3428 272,-3428 266,-3428 260,-3422 260,-3416 260,-3416 260,-3402 260,-3402 260,-3396 266,-3390 272,-3390 272,-3390 376,-3390 376,-3390 382,-3390 388,-3396 388,-3402 388,-3402 388,-3416 388,-3416 388,-3422 382,-3428 376,-3428"/>
<text text-anchor="middle" x="324" y="-3412.8" font-family="Arial" font-size="14.00">Check Branch</text>
<text text-anchor="middle" x="324" y="-3397.8" font-family="Arial" font-size="14.00">State for All Repos</text>
</g>
<!-- new_service_needed&#45;&gt;check_branches -->
<g id="edge23" class="edge">
<title>new_service_needed&#45;&gt;check_branches</title>
<path fill="none" stroke="black" d="M262.04,-3583.54C273.49,-3566.9 287.1,-3545.08 296,-3524 307.83,-3496 315.38,-3461.93 319.62,-3438.36"/>
<polygon fill="black" stroke="black" points="323.1,-3438.79 321.34,-3428.34 316.2,-3437.6 323.1,-3438.79"/>
<text text-anchor="middle" x="321" y="-3501.3" font-family="Arial" font-size="14.00">No</text>
</g>
<!-- plan_service&#45;&gt;check_branches -->
<g id="edge24" class="edge">
<title>plan_service&#45;&gt;check_branches</title>
<path fill="none" stroke="black" d="M244.9,-3485.88C259.94,-3471.44 281.18,-3451.07 297.86,-3435.07"/>
<polygon fill="black" stroke="black" points="300.37,-3437.52 305.16,-3428.07 295.52,-3432.46 300.37,-3437.52"/>
</g>
<!-- invoke_deploy_skill -->
<g id="node32" class="node">
<title>invoke_deploy_skill</title>
<path fill="lightblue" stroke="black" d="M202.5,-3428C202.5,-3428 93.5,-3428 93.5,-3428 87.5,-3428 81.5,-3422 81.5,-3416 81.5,-3416 81.5,-3402 81.5,-3402 81.5,-3396 87.5,-3390 93.5,-3390 93.5,-3390 202.5,-3390 202.5,-3390 208.5,-3390 214.5,-3396 214.5,-3402 214.5,-3402 214.5,-3416 214.5,-3416 214.5,-3422 208.5,-3428 202.5,-3428"/>
<text text-anchor="middle" x="148" y="-3412.8" font-family="Arial" font-size="14.00">Invoke Deployment</text>
<text text-anchor="middle" x="148" y="-3397.8" font-family="Arial" font-size="14.00">Skill</text>
</g>
<!-- plan_service&#45;&gt;invoke_deploy_skill -->
<g id="edge40" class="edge">
<title>plan_service&#45;&gt;invoke_deploy_skill</title>
<path fill="none" stroke="black" d="M210.96,-3485.88C199.2,-3471.7 182.69,-3451.81 169.53,-3435.94"/>
<polygon fill="black" stroke="black" points="172.07,-3433.53 162.99,-3428.07 166.69,-3438 172.07,-3433.53"/>
</g>
<!-- branch_exists -->
<g id="node19" class="node">
<title>branch_exists</title>
<path fill="lightblue" stroke="black" d="M334.69,-3348.98C334.69,-3348.98 250.31,-3319.02 250.31,-3319.02 244.65,-3317.01 244.65,-3312.99 250.31,-3310.98 250.31,-3310.98 334.69,-3281.02 334.69,-3281.02 340.35,-3279.01 351.65,-3279.01 357.31,-3281.02 357.31,-3281.02 441.69,-3310.98 441.69,-3310.98 447.35,-3312.99 447.35,-3317.01 441.69,-3319.02 441.69,-3319.02 357.31,-3348.98 357.31,-3348.98 351.65,-3350.99 340.35,-3350.99 334.69,-3348.98"/>
<text text-anchor="middle" x="346" y="-3318.8" font-family="Arial" font-size="14.00">Correct Branch</text>
<text text-anchor="middle" x="346" y="-3303.8" font-family="Arial" font-size="14.00">Exists?</text>
</g>
<!-- check_branches&#45;&gt;branch_exists -->
<g id="edge19" class="edge">
<title>check_branches&#45;&gt;branch_exists</title>
<path fill="none" stroke="black" d="M328.35,-3389.82C330.4,-3381.25 332.94,-3370.62 335.45,-3360.11"/>
<polygon fill="black" stroke="black" points="338.91,-3360.69 337.83,-3350.15 332.1,-3359.06 338.91,-3360.69"/>
</g>
<!-- create_branch -->
<g id="node20" class="node">
<title>create_branch</title>
<path fill="lightblue" stroke="black" d="M350.5,-3226C350.5,-3226 267.5,-3226 267.5,-3226 261.5,-3226 255.5,-3220 255.5,-3214 255.5,-3214 255.5,-3200 255.5,-3200 255.5,-3194 261.5,-3188 267.5,-3188 267.5,-3188 350.5,-3188 350.5,-3188 356.5,-3188 362.5,-3194 362.5,-3200 362.5,-3200 362.5,-3214 362.5,-3214 362.5,-3220 356.5,-3226 350.5,-3226"/>
<text text-anchor="middle" x="309" y="-3210.8" font-family="Arial" font-size="14.00">Create Feature</text>
<text text-anchor="middle" x="309" y="-3195.8" font-family="Arial" font-size="14.00">Branch(es)</text>
</g>
<!-- branch_exists&#45;&gt;create_branch -->
<g id="edge20" class="edge">
<title>branch_exists&#45;&gt;create_branch</title>
<path fill="none" stroke="black" d="M334.5,-3281.04C329.41,-3266.47 323.49,-3249.52 318.64,-3235.63"/>
<polygon fill="black" stroke="black" points="321.93,-3234.41 315.33,-3226.12 315.32,-3236.72 321.93,-3234.41"/>
<text text-anchor="middle" x="336" y="-3247.8" font-family="Arial" font-size="14.00">No</text>
</g>
<!-- checkout_branch -->
<g id="node21" class="node">
<title>checkout_branch</title>
<path fill="lightblue" stroke="black" d="M400,-3151C400,-3151 350,-3151 350,-3151 344,-3151 338,-3145 338,-3139 338,-3139 338,-3125 338,-3125 338,-3119 344,-3113 350,-3113 350,-3113 400,-3113 400,-3113 406,-3113 412,-3119 412,-3125 412,-3125 412,-3139 412,-3139 412,-3145 406,-3151 400,-3151"/>
<text text-anchor="middle" x="375" y="-3135.8" font-family="Arial" font-size="14.00">Checkout</text>
<text text-anchor="middle" x="375" y="-3120.8" font-family="Arial" font-size="14.00">Branches</text>
</g>
<!-- branch_exists&#45;&gt;checkout_branch -->
<g id="edge21" class="edge">
<title>branch_exists&#45;&gt;checkout_branch</title>
<path fill="none" stroke="black" d="M357.36,-3280.98C362.47,-3264.64 368.02,-3244.5 371,-3226 374.46,-3204.53 375.39,-3179.93 375.49,-3161.42"/>
<polygon fill="black" stroke="black" points="378.99,-3161.3 375.47,-3151.3 371.99,-3161.31 378.99,-3161.3"/>
<text text-anchor="middle" x="386.5" y="-3203.3" font-family="Arial" font-size="14.00">Yes</text>
</g>
<!-- create_branch&#45;&gt;checkout_branch -->
<g id="edge22" class="edge">
<title>create_branch&#45;&gt;checkout_branch</title>
<path fill="none" stroke="black" d="M325.31,-3187.96C333.33,-3179.09 343.12,-3168.26 351.89,-3158.56"/>
<polygon fill="black" stroke="black" points="354.53,-3160.86 358.64,-3151.09 349.34,-3156.16 354.53,-3160.86"/>
</g>
<!-- update_repo_todos -->
<g id="node22" class="node">
<title>update_repo_todos</title>
<path fill="lightblue" stroke="black" d="M427,-3055C427,-3055 323,-3055 323,-3055 317,-3055 311,-3049 311,-3043 311,-3043 311,-3029 311,-3029 311,-3023 317,-3017 323,-3017 323,-3017 427,-3017 427,-3017 433,-3017 439,-3023 439,-3029 439,-3029 439,-3043 439,-3043 439,-3049 433,-3055 427,-3055"/>
<text text-anchor="middle" x="375" y="-3039.8" font-family="Arial" font-size="14.00">Update TODO.md</text>
<text text-anchor="middle" x="375" y="-3024.8" font-family="Arial" font-size="14.00">for Each Repo</text>
</g>
<!-- checkout_branch&#45;&gt;update_repo_todos -->
<g id="edge27" class="edge">
<title>checkout_branch&#45;&gt;update_repo_todos</title>
<path fill="none" stroke="black" d="M375,-3112.88C375,-3099.35 375,-3080.62 375,-3065.15"/>
<polygon fill="black" stroke="black" points="378.5,-3065.07 375,-3055.07 371.5,-3065.07 378.5,-3065.07"/>
</g>
<!-- detail_tasks -->
<g id="node23" class="node">
<title>detail_tasks</title>
<path fill="lightblue" stroke="black" d="M436,-2980C436,-2980 314,-2980 314,-2980 308,-2980 302,-2974 302,-2968 302,-2968 302,-2954 302,-2954 302,-2948 308,-2942 314,-2942 314,-2942 436,-2942 436,-2942 442,-2942 448,-2948 448,-2954 448,-2954 448,-2968 448,-2968 448,-2974 442,-2980 436,-2980"/>
<text text-anchor="middle" x="375" y="-2964.8" font-family="Arial" font-size="14.00">Add Detailed Tasks</text>
<text text-anchor="middle" x="375" y="-2949.8" font-family="Arial" font-size="14.00">&amp; Acceptance Criteria</text>
</g>
<!-- update_repo_todos&#45;&gt;detail_tasks -->
<g id="edge25" class="edge">
<title>update_repo_todos&#45;&gt;detail_tasks</title>
<path fill="none" stroke="black" d="M375,-3016.96C375,-3008.88 375,-2999.18 375,-2990.18"/>
<polygon fill="black" stroke="black" points="378.5,-2990.09 375,-2980.09 371.5,-2990.09 378.5,-2990.09"/>
</g>
<!-- mark_dependencies -->
<g id="node24" class="node">
<title>mark_dependencies</title>
<path fill="lightblue" stroke="black" d="M424.5,-2905C424.5,-2905 325.5,-2905 325.5,-2905 319.5,-2905 313.5,-2899 313.5,-2893 313.5,-2893 313.5,-2879 313.5,-2879 313.5,-2873 319.5,-2867 325.5,-2867 325.5,-2867 424.5,-2867 424.5,-2867 430.5,-2867 436.5,-2873 436.5,-2879 436.5,-2879 436.5,-2893 436.5,-2893 436.5,-2899 430.5,-2905 424.5,-2905"/>
<text text-anchor="middle" x="375" y="-2889.8" font-family="Arial" font-size="14.00">Mark Cross&#45;Repo</text>
<text text-anchor="middle" x="375" y="-2874.8" font-family="Arial" font-size="14.00">Dependencies</text>
</g>
<!-- detail_tasks&#45;&gt;mark_dependencies -->
<g id="edge26" class="edge">
<title>detail_tasks&#45;&gt;mark_dependencies</title>
<path fill="none" stroke="black" d="M375,-2941.96C375,-2933.88 375,-2924.18 375,-2915.18"/>
<polygon fill="black" stroke="black" points="378.5,-2915.09 375,-2905.09 371.5,-2915.09 378.5,-2915.09"/>
</g>
<!-- interface_changes -->
<g id="node25" class="node">
<title>interface_changes</title>
<path fill="yellow" stroke="black" d="M363.5,-2826.56C363.5,-2826.56 259.5,-2795.44 259.5,-2795.44 253.75,-2793.72 253.75,-2790.28 259.5,-2788.56 259.5,-2788.56 363.5,-2757.44 363.5,-2757.44 369.25,-2755.72 380.75,-2755.72 386.5,-2757.44 386.5,-2757.44 490.5,-2788.56 490.5,-2788.56 496.25,-2790.28 496.25,-2793.72 490.5,-2795.44 490.5,-2795.44 386.5,-2826.56 386.5,-2826.56 380.75,-2828.28 369.25,-2828.28 363.5,-2826.56"/>
<text text-anchor="middle" x="375" y="-2795.8" font-family="Arial" font-size="14.00">Interface Changes</text>
<text text-anchor="middle" x="375" y="-2780.8" font-family="Arial" font-size="14.00">Needed?</text>
</g>
<!-- mark_dependencies&#45;&gt;interface_changes -->
<g id="edge28" class="edge">
<title>mark_dependencies&#45;&gt;interface_changes</title>
<path fill="none" stroke="black" d="M375,-2866.82C375,-2859.13 375,-2849.78 375,-2840.35"/>
<polygon fill="black" stroke="black" points="378.5,-2840.16 375,-2830.16 371.5,-2840.16 378.5,-2840.16"/>
</g>
<!-- schema_updates -->
<g id="node26" class="node">
<title>schema_updates</title>
<path fill="lightblue" stroke="black" d="M480.5,-2682C480.5,-2682 383.5,-2682 383.5,-2682 377.5,-2682 371.5,-2676 371.5,-2670 371.5,-2670 371.5,-2658 371.5,-2658 371.5,-2652 377.5,-2646 383.5,-2646 383.5,-2646 480.5,-2646 480.5,-2646 486.5,-2646 492.5,-2652 492.5,-2658 492.5,-2658 492.5,-2670 492.5,-2670 492.5,-2676 486.5,-2682 480.5,-2682"/>
<text text-anchor="middle" x="432" y="-2660.3" font-family="Arial" font-size="14.00">Update Schemas</text>
</g>
<!-- interface_changes&#45;&gt;schema_updates -->
<g id="edge35" class="edge">
<title>interface_changes&#45;&gt;schema_updates</title>
<path fill="none" stroke="black" d="M389.83,-2758.22C399.25,-2737.39 411.29,-2710.78 420.09,-2691.32"/>
<polygon fill="black" stroke="black" points="423.31,-2692.69 424.25,-2682.14 416.94,-2689.81 423.31,-2692.69"/>
<text text-anchor="middle" x="417.5" y="-2724.8" font-family="Arial" font-size="14.00">Yes</text>
</g>
<!-- ready_to_implement -->
<g id="node37" class="node">
<title>ready_to_implement</title>
<path fill="lightcoral" stroke="black" d="M222.5,-2444C222.5,-2444 165.5,-2444 165.5,-2444 159.5,-2444 153.5,-2438 153.5,-2432 153.5,-2432 153.5,-2418 153.5,-2418 153.5,-2412 159.5,-2406 165.5,-2406 165.5,-2406 222.5,-2406 222.5,-2406 228.5,-2406 234.5,-2412 234.5,-2418 234.5,-2418 234.5,-2432 234.5,-2432 234.5,-2438 228.5,-2444 222.5,-2444"/>
<text text-anchor="middle" x="194" y="-2428.8" font-family="Arial" font-size="14.00">Ready to</text>
<text text-anchor="middle" x="194" y="-2413.8" font-family="Arial" font-size="14.00">Implement</text>
</g>
<!-- interface_changes&#45;&gt;ready_to_implement -->
<g id="edge41" class="edge">
<title>interface_changes&#45;&gt;ready_to_implement</title>
<path fill="none" stroke="black" d="M308.37,-2773.89C256.76,-2756.15 194,-2722.72 194,-2665 194,-2665 194,-2665 194,-2499 194,-2484.3 194,-2467.93 194,-2454.43"/>
<polygon fill="black" stroke="black" points="197.5,-2454.3 194,-2444.3 190.5,-2454.3 197.5,-2454.3"/>
<text text-anchor="middle" x="203" y="-2578.8" font-family="Arial" font-size="14.00">No</text>
</g>
<!-- protobuf_update -->
<g id="node27" class="node">
<title>protobuf_update</title>
<path fill="lightblue" stroke="black" d="M352,-2609C352,-2609 242,-2609 242,-2609 236,-2609 230,-2603 230,-2597 230,-2597 230,-2568 230,-2568 230,-2562 236,-2556 242,-2556 242,-2556 352,-2556 352,-2556 358,-2556 364,-2562 364,-2568 364,-2568 364,-2597 364,-2597 364,-2603 358,-2609 352,-2609"/>
<text text-anchor="middle" x="297" y="-2593.8" font-family="Arial" font-size="14.00">Update Protobuf</text>
<text text-anchor="middle" x="297" y="-2578.8" font-family="Arial" font-size="14.00">Definitions</text>
<text text-anchor="middle" x="297" y="-2563.8" font-family="Arial" font-size="14.00">(protobuf&#45;schemas)</text>
</g>
<!-- schema_updates&#45;&gt;protobuf_update -->
<g id="edge29" class="edge">
<title>schema_updates&#45;&gt;protobuf_update</title>
<path fill="none" stroke="black" d="M403.04,-2645.95C387.39,-2636.73 367.59,-2625.07 349.35,-2614.33"/>
<polygon fill="black" stroke="black" points="350.93,-2611.2 340.54,-2609.14 347.38,-2617.23 350.93,-2611.2"/>
</g>
<!-- grpc_update -->
<g id="node28" class="node">
<title>grpc_update</title>
<path fill="lightblue" stroke="black" d="M470,-2601.5C470,-2601.5 394,-2601.5 394,-2601.5 388,-2601.5 382,-2595.5 382,-2589.5 382,-2589.5 382,-2575.5 382,-2575.5 382,-2569.5 388,-2563.5 394,-2563.5 394,-2563.5 470,-2563.5 470,-2563.5 476,-2563.5 482,-2569.5 482,-2575.5 482,-2575.5 482,-2589.5 482,-2589.5 482,-2595.5 476,-2601.5 470,-2601.5"/>
<text text-anchor="middle" x="432" y="-2586.3" font-family="Arial" font-size="14.00">Update gRPC</text>
<text text-anchor="middle" x="432" y="-2571.3" font-family="Arial" font-size="14.00">Service Defs</text>
</g>
<!-- schema_updates&#45;&gt;grpc_update -->
<g id="edge30" class="edge">
<title>schema_updates&#45;&gt;grpc_update</title>
<path fill="none" stroke="black" d="M432,-2645.75C432,-2635.85 432,-2623.18 432,-2611.85"/>
<polygon fill="black" stroke="black" points="435.5,-2611.54 432,-2601.54 428.5,-2611.54 435.5,-2611.54"/>
</g>
<!-- http_api_update -->
<g id="node29" class="node">
<title>http_api_update</title>
<path fill="lightblue" stroke="black" d="M612,-2601.5C612,-2601.5 512,-2601.5 512,-2601.5 506,-2601.5 500,-2595.5 500,-2589.5 500,-2589.5 500,-2575.5 500,-2575.5 500,-2569.5 506,-2563.5 512,-2563.5 512,-2563.5 612,-2563.5 612,-2563.5 618,-2563.5 624,-2569.5 624,-2575.5 624,-2575.5 624,-2589.5 624,-2589.5 624,-2595.5 618,-2601.5 612,-2601.5"/>
<text text-anchor="middle" x="562" y="-2586.3" font-family="Arial" font-size="14.00">Update HTTP API</text>
<text text-anchor="middle" x="562" y="-2571.3" font-family="Arial" font-size="14.00">Endpoints</text>
</g>
<!-- schema_updates&#45;&gt;http_api_update -->
<g id="edge31" class="edge">
<title>schema_updates&#45;&gt;http_api_update</title>
<path fill="none" stroke="black" d="M459.89,-2645.95C478.48,-2634.58 503.15,-2619.49 523.59,-2606.99"/>
<polygon fill="black" stroke="black" points="525.64,-2609.84 532.35,-2601.63 521.99,-2603.86 525.64,-2609.84"/>
</g>
<!-- json_format_update -->
<g id="node30" class="node">
<title>json_format_update</title>
<path fill="lightblue" stroke="black" d="M756,-2601.5C756,-2601.5 654,-2601.5 654,-2601.5 648,-2601.5 642,-2595.5 642,-2589.5 642,-2589.5 642,-2575.5 642,-2575.5 642,-2569.5 648,-2563.5 654,-2563.5 654,-2563.5 756,-2563.5 756,-2563.5 762,-2563.5 768,-2569.5 768,-2575.5 768,-2575.5 768,-2589.5 768,-2589.5 768,-2595.5 762,-2601.5 756,-2601.5"/>
<text text-anchor="middle" x="705" y="-2586.3" font-family="Arial" font-size="14.00">Update JSON</text>
<text text-anchor="middle" x="705" y="-2571.3" font-family="Arial" font-size="14.00">Message Formats</text>
</g>
<!-- schema_updates&#45;&gt;json_format_update -->
<g id="edge32" class="edge">
<title>schema_updates&#45;&gt;json_format_update</title>
<path fill="none" stroke="black" d="M492.6,-2648.03C532.68,-2637.81 586.25,-2623.54 633,-2609 637.25,-2607.68 641.62,-2606.27 646,-2604.81"/>
<polygon fill="black" stroke="black" points="647.24,-2608.09 655.59,-2601.57 645,-2601.46 647.24,-2608.09"/>
</g>
<!-- generate_code -->
<g id="node31" class="node">
<title>generate_code</title>
<path fill="lightblue" stroke="black" d="M340,-2519C340,-2519 254,-2519 254,-2519 248,-2519 242,-2513 242,-2507 242,-2507 242,-2493 242,-2493 242,-2487 248,-2481 254,-2481 254,-2481 340,-2481 340,-2481 346,-2481 352,-2487 352,-2493 352,-2493 352,-2507 352,-2507 352,-2513 346,-2519 340,-2519"/>
<text text-anchor="middle" x="297" y="-2503.8" font-family="Arial" font-size="14.00">Generate Code</text>
<text text-anchor="middle" x="297" y="-2488.8" font-family="Arial" font-size="14.00">from Schemas</text>
</g>
<!-- protobuf_update&#45;&gt;generate_code -->
<g id="edge33" class="edge">
<title>protobuf_update&#45;&gt;generate_code</title>
<path fill="none" stroke="black" d="M297,-2555.59C297,-2547.31 297,-2538.11 297,-2529.65"/>
<polygon fill="black" stroke="black" points="300.5,-2529.47 297,-2519.47 293.5,-2529.47 300.5,-2529.47"/>
</g>
<!-- grpc_update&#45;&gt;generate_code -->
<g id="edge34" class="edge">
<title>grpc_update&#45;&gt;generate_code</title>
<path fill="none" stroke="black" d="M401.7,-2563.43C382.25,-2551.83 356.8,-2536.66 335.86,-2524.17"/>
<polygon fill="black" stroke="black" points="337.58,-2521.12 327.2,-2519.01 333.99,-2527.13 337.58,-2521.12"/>
</g>
<!-- generate_code&#45;&gt;ready_to_implement -->
<g id="edge42" class="edge">
<title>generate_code&#45;&gt;ready_to_implement</title>
<path fill="none" stroke="black" d="M271.54,-2480.96C258.42,-2471.65 242.23,-2460.18 228.05,-2450.13"/>
<polygon fill="black" stroke="black" points="229.71,-2447.02 219.52,-2444.09 225.66,-2452.73 229.71,-2447.02"/>
</g>
<!-- setup_minimal -->
<g id="node33" class="node">
<title>setup_minimal</title>
<path fill="lightblue" stroke="black" d="M196,-3334C196,-3334 100,-3334 100,-3334 94,-3334 88,-3328 88,-3322 88,-3322 88,-3308 88,-3308 88,-3302 94,-3296 100,-3296 100,-3296 196,-3296 196,-3296 202,-3296 208,-3302 208,-3308 208,-3308 208,-3322 208,-3322 208,-3328 202,-3334 196,-3334"/>
<text text-anchor="middle" x="148" y="-3318.8" font-family="Arial" font-size="14.00">Setup Minimal</text>
<text text-anchor="middle" x="148" y="-3303.8" font-family="Arial" font-size="14.00">Service Structure</text>
</g>
<!-- invoke_deploy_skill&#45;&gt;setup_minimal -->
<g id="edge36" class="edge">
<title>invoke_deploy_skill&#45;&gt;setup_minimal</title>
<path fill="none" stroke="black" d="M148,-3389.82C148,-3376.85 148,-3359.13 148,-3344.31"/>
<polygon fill="black" stroke="black" points="151.5,-3344.14 148,-3334.14 144.5,-3344.14 151.5,-3344.14"/>
</g>
<!-- config_docker -->
<g id="node34" class="node">
<title>config_docker</title>
<path fill="lightblue" stroke="black" d="M197,-3226C197,-3226 99,-3226 99,-3226 93,-3226 87,-3220 87,-3214 87,-3214 87,-3200 87,-3200 87,-3194 93,-3188 99,-3188 99,-3188 197,-3188 197,-3188 203,-3188 209,-3194 209,-3200 209,-3200 209,-3214 209,-3214 209,-3220 203,-3226 197,-3226"/>
<text text-anchor="middle" x="148" y="-3210.8" font-family="Arial" font-size="14.00">Configure Docker</text>
<text text-anchor="middle" x="148" y="-3195.8" font-family="Arial" font-size="14.00">&amp; Compose</text>
</g>
<!-- setup_minimal&#45;&gt;config_docker -->
<g id="edge37" class="edge">
<title>setup_minimal&#45;&gt;config_docker</title>
<path fill="none" stroke="black" d="M148,-3295.54C148,-3279.2 148,-3255.1 148,-3236.32"/>
<polygon fill="black" stroke="black" points="151.5,-3236.25 148,-3226.25 144.5,-3236.25 151.5,-3236.25"/>
</g>
<!-- config_ports -->
<g id="node35" class="node">
<title>config_ports</title>
<path fill="lightblue" stroke="black" d="M200,-3151C200,-3151 96,-3151 96,-3151 90,-3151 84,-3145 84,-3139 84,-3139 84,-3125 84,-3125 84,-3119 90,-3113 96,-3113 96,-3113 200,-3113 200,-3113 206,-3113 212,-3119 212,-3125 212,-3125 212,-3139 212,-3139 212,-3145 206,-3151 200,-3151"/>
<text text-anchor="middle" x="148" y="-3135.8" font-family="Arial" font-size="14.00">Configure Ports</text>
<text text-anchor="middle" x="148" y="-3120.8" font-family="Arial" font-size="14.00">&amp; Service Registry</text>
</g>
<!-- config_docker&#45;&gt;config_ports -->
<g id="edge38" class="edge">
<title>config_docker&#45;&gt;config_ports</title>
<path fill="none" stroke="black" d="M148,-3187.96C148,-3179.88 148,-3170.18 148,-3161.18"/>
<polygon fill="black" stroke="black" points="151.5,-3161.09 148,-3151.09 144.5,-3161.09 151.5,-3161.09"/>
</g>
<!-- test_deploy -->
<g id="node36" class="node">
<title>test_deploy</title>
<path fill="lightblue" stroke="black" d="M195,-3055C195,-3055 101,-3055 101,-3055 95,-3055 89,-3049 89,-3043 89,-3043 89,-3029 89,-3029 89,-3023 95,-3017 101,-3017 101,-3017 195,-3017 195,-3017 201,-3017 207,-3023 207,-3029 207,-3029 207,-3043 207,-3043 207,-3049 201,-3055 195,-3055"/>
<text text-anchor="middle" x="148" y="-3039.8" font-family="Arial" font-size="14.00">Test Deployment</text>
<text text-anchor="middle" x="148" y="-3024.8" font-family="Arial" font-size="14.00">in Ecosystem</text>
</g>
<!-- config_ports&#45;&gt;test_deploy -->
<g id="edge39" class="edge">
<title>config_ports&#45;&gt;test_deploy</title>
<path fill="none" stroke="black" d="M148,-3112.88C148,-3099.35 148,-3080.62 148,-3065.15"/>
<polygon fill="black" stroke="black" points="151.5,-3065.07 148,-3055.07 144.5,-3065.07 151.5,-3065.07"/>
</g>
<!-- test_deploy&#45;&gt;ready_to_implement -->
<g id="edge43" class="edge">
<title>test_deploy&#45;&gt;ready_to_implement</title>
<path fill="none" stroke="black" d="M148,-3016.7C148,-3001.93 148,-2980.63 148,-2962 148,-2962 148,-2962 148,-2499 148,-2481.51 157.57,-2464.79 167.98,-2451.77"/>
<polygon fill="black" stroke="black" points="170.64,-2454.04 174.49,-2444.17 165.33,-2449.49 170.64,-2454.04"/>
</g>
<!-- invoke_lang_skills -->
<g id="node38" class="node">
<title>invoke_lang_skills</title>
<path fill="lightblue" stroke="black" d="M233,-2348C233,-2348 99,-2348 99,-2348 93,-2348 87,-2342 87,-2336 87,-2336 87,-2322 87,-2322 87,-2316 93,-2310 99,-2310 99,-2310 233,-2310 233,-2310 239,-2310 245,-2316 245,-2322 245,-2322 245,-2336 245,-2336 245,-2342 239,-2348 233,-2348"/>
<text text-anchor="middle" x="166" y="-2332.8" font-family="Arial" font-size="14.00">Invoke Language Skills</text>
<text text-anchor="middle" x="166" y="-2317.8" font-family="Arial" font-size="14.00">(Go/Python/TypeScript)</text>
</g>
<!-- ready_to_implement&#45;&gt;invoke_lang_skills -->
<g id="edge48" class="edge">
<title>ready_to_implement&#45;&gt;invoke_lang_skills</title>
<path fill="none" stroke="black" d="M188.6,-2405.88C184.53,-2392.22 178.89,-2373.26 174.25,-2357.71"/>
<polygon fill="black" stroke="black" points="177.59,-2356.65 171.38,-2348.07 170.88,-2358.65 177.59,-2356.65"/>
</g>
<!-- invoke_db_skills -->
<g id="node39" class="node">
<title>invoke_db_skills</title>
<path fill="lightblue" stroke="black" d="M404.5,-2348C404.5,-2348 275.5,-2348 275.5,-2348 269.5,-2348 263.5,-2342 263.5,-2336 263.5,-2336 263.5,-2322 263.5,-2322 263.5,-2316 269.5,-2310 275.5,-2310 275.5,-2310 404.5,-2310 404.5,-2310 410.5,-2310 416.5,-2316 416.5,-2322 416.5,-2322 416.5,-2336 416.5,-2336 416.5,-2342 410.5,-2348 404.5,-2348"/>
<text text-anchor="middle" x="340" y="-2332.8" font-family="Arial" font-size="14.00">Invoke Database Skills</text>
<text text-anchor="middle" x="340" y="-2317.8" font-family="Arial" font-size="14.00">(if needed)</text>
</g>
<!-- ready_to_implement&#45;&gt;invoke_db_skills -->
<g id="edge49" class="edge">
<title>ready_to_implement&#45;&gt;invoke_db_skills</title>
<path fill="none" stroke="black" d="M222.15,-2405.88C245.28,-2390.99 278.21,-2369.78 303.38,-2353.57"/>
<polygon fill="black" stroke="black" points="305.42,-2356.42 311.94,-2348.07 301.63,-2350.54 305.42,-2356.42"/>
</g>
<!-- implement_tests -->
<g id="node40" class="node">
<title>implement_tests</title>
<path fill="lightblue" stroke="black" d="M256.5,-2273C256.5,-2273 167.5,-2273 167.5,-2273 161.5,-2273 155.5,-2267 155.5,-2261 155.5,-2261 155.5,-2247 155.5,-2247 155.5,-2241 161.5,-2235 167.5,-2235 167.5,-2235 256.5,-2235 256.5,-2235 262.5,-2235 268.5,-2241 268.5,-2247 268.5,-2247 268.5,-2261 268.5,-2261 268.5,-2267 262.5,-2273 256.5,-2273"/>
<text text-anchor="middle" x="212" y="-2257.8" font-family="Arial" font-size="14.00">Write Tests First</text>
<text text-anchor="middle" x="212" y="-2242.8" font-family="Arial" font-size="14.00">(TDD Protocol)</text>
</g>
<!-- invoke_lang_skills&#45;&gt;implement_tests -->
<g id="edge44" class="edge">
<title>invoke_lang_skills&#45;&gt;implement_tests</title>
<path fill="none" stroke="black" d="M177.37,-2309.96C182.73,-2301.44 189.24,-2291.12 195.16,-2281.72"/>
<polygon fill="black" stroke="black" points="198.23,-2283.42 200.6,-2273.09 192.31,-2279.68 198.23,-2283.42"/>
</g>
<!-- invoke_db_skills&#45;&gt;implement_tests -->
<g id="edge45" class="edge">
<title>invoke_db_skills&#45;&gt;implement_tests</title>
<path fill="none" stroke="black" d="M308.36,-2309.96C291.59,-2300.39 270.8,-2288.53 252.83,-2278.28"/>
<polygon fill="black" stroke="black" points="254.14,-2275 243.72,-2273.09 250.67,-2281.08 254.14,-2275"/>
</g>
<!-- implement_code -->
<g id="node41" class="node">
<title>implement_code</title>
<path fill="lightblue" stroke="black" d="M246,-2198C246,-2198 178,-2198 178,-2198 172,-2198 166,-2192 166,-2186 166,-2186 166,-2172 166,-2172 166,-2166 172,-2160 178,-2160 178,-2160 246,-2160 246,-2160 252,-2160 258,-2166 258,-2172 258,-2172 258,-2186 258,-2186 258,-2192 252,-2198 246,-2198"/>
<text text-anchor="middle" x="212" y="-2182.8" font-family="Arial" font-size="14.00">Implement</text>
<text text-anchor="middle" x="212" y="-2167.8" font-family="Arial" font-size="14.00">Functionality</text>
</g>
<!-- implement_tests&#45;&gt;implement_code -->
<g id="edge46" class="edge">
<title>implement_tests&#45;&gt;implement_code</title>
<path fill="none" stroke="black" d="M212,-2234.96C212,-2226.88 212,-2217.18 212,-2208.18"/>
<polygon fill="black" stroke="black" points="215.5,-2208.09 212,-2198.09 208.5,-2208.09 215.5,-2208.09"/>
</g>
<!-- run_tests -->
<g id="node42" class="node">
<title>run_tests</title>
<path fill="lightblue" stroke="black" d="M252,-2123C252,-2123 172,-2123 172,-2123 166,-2123 160,-2117 160,-2111 160,-2111 160,-2099 160,-2099 160,-2093 166,-2087 172,-2087 172,-2087 252,-2087 252,-2087 258,-2087 264,-2093 264,-2099 264,-2099 264,-2111 264,-2111 264,-2117 258,-2123 252,-2123"/>
<text text-anchor="middle" x="212" y="-2101.3" font-family="Arial" font-size="14.00">Run Test Suite</text>
</g>
<!-- implement_code&#45;&gt;run_tests -->
<g id="edge47" class="edge">
<title>implement_code&#45;&gt;run_tests</title>
<path fill="none" stroke="black" d="M212,-2159.83C212,-2151.89 212,-2142.41 212,-2133.63"/>
<polygon fill="black" stroke="black" points="215.5,-2133.42 212,-2123.42 208.5,-2133.42 215.5,-2133.42"/>
</g>
<!-- tests_pass -->
<g id="node43" class="node">
<title>tests_pass</title>
<path fill="yellow" stroke="black" d="M139.56,-2044.08C139.56,-2044.08 93.44,-2017.92 93.44,-2017.92 88.22,-2014.96 88.22,-2009.04 93.44,-2006.08 93.44,-2006.08 139.56,-1979.92 139.56,-1979.92 144.78,-1976.96 155.22,-1976.96 160.44,-1979.92 160.44,-1979.92 206.56,-2006.08 206.56,-2006.08 211.78,-2009.04 211.78,-2014.96 206.56,-2017.92 206.56,-2017.92 160.44,-2044.08 160.44,-2044.08 155.22,-2047.04 144.78,-2047.04 139.56,-2044.08"/>
<text text-anchor="middle" x="150" y="-2015.8" font-family="Arial" font-size="14.00">All Tests</text>
<text text-anchor="middle" x="150" y="-2000.8" font-family="Arial" font-size="14.00">Pass?</text>
</g>
<!-- run_tests&#45;&gt;tests_pass -->
<g id="edge50" class="edge">
<title>run_tests&#45;&gt;tests_pass</title>
<path fill="none" stroke="black" d="M200.34,-2086.88C192.91,-2075.99 183.03,-2061.47 173.98,-2048.2"/>
<polygon fill="black" stroke="black" points="176.72,-2046 168.19,-2039.7 170.93,-2049.94 176.72,-2046"/>
</g>
<!-- fix_issues -->
<g id="node44" class="node">
<title>fix_issues</title>
<path fill="lightblue" stroke="black" d="M271.5,-1882C271.5,-1882 218.5,-1882 218.5,-1882 212.5,-1882 206.5,-1876 206.5,-1870 206.5,-1870 206.5,-1858 206.5,-1858 206.5,-1852 212.5,-1846 218.5,-1846 218.5,-1846 271.5,-1846 271.5,-1846 277.5,-1846 283.5,-1852 283.5,-1858 283.5,-1858 283.5,-1870 283.5,-1870 283.5,-1876 277.5,-1882 271.5,-1882"/>
<text text-anchor="middle" x="245" y="-1860.3" font-family="Arial" font-size="14.00">Fix Issues</text>
</g>
<!-- tests_pass&#45;&gt;fix_issues -->
<g id="edge51" class="edge">
<title>tests_pass&#45;&gt;fix_issues</title>
<path fill="none" stroke="black" d="M167.65,-1983.88C184.93,-1957.32 211.07,-1917.14 228.09,-1890.99"/>
<polygon fill="black" stroke="black" points="231.18,-1892.65 233.7,-1882.36 225.32,-1888.83 231.18,-1892.65"/>
<text text-anchor="middle" x="204" y="-1944.8" font-family="Arial" font-size="14.00">No</text>
</g>
<!-- needs_refactor -->
<g id="node45" class="node">
<title>needs_refactor</title>
<path fill="lightblue" stroke="black" d="M91.02,-1897.15C91.02,-1897.15 26.98,-1868.85 26.98,-1868.85 21.49,-1866.42 21.49,-1861.58 26.98,-1859.15 26.98,-1859.15 91.02,-1830.85 91.02,-1830.85 96.51,-1828.42 107.49,-1828.42 112.98,-1830.85 112.98,-1830.85 177.02,-1859.15 177.02,-1859.15 182.51,-1861.58 182.51,-1866.42 177.02,-1868.85 177.02,-1868.85 112.98,-1897.15 112.98,-1897.15 107.49,-1899.58 96.51,-1899.58 91.02,-1897.15"/>
<text text-anchor="middle" x="102" y="-1867.8" font-family="Arial" font-size="14.00">Refactoring</text>
<text text-anchor="middle" x="102" y="-1852.8" font-family="Arial" font-size="14.00">Needed?</text>
</g>
<!-- tests_pass&#45;&gt;needs_refactor -->
<g id="edge55" class="edge">
<title>tests_pass&#45;&gt;needs_refactor</title>
<path fill="none" stroke="black" d="M139.7,-1979.68C132.74,-1958.49 123.45,-1930.26 115.84,-1907.11"/>
<polygon fill="black" stroke="black" points="119.14,-1905.94 112.7,-1897.53 112.49,-1908.13 119.14,-1905.94"/>
<text text-anchor="middle" x="143.5" y="-1944.8" font-family="Arial" font-size="14.00">Yes</text>
</g>
<!-- fix_issues&#45;&gt;run_tests -->
<g id="edge52" class="edge">
<title>fix_issues&#45;&gt;run_tests</title>
<path fill="none" stroke="black" d="M244.1,-1882.21C242.2,-1915.05 237.01,-1988.83 226,-2050 224.42,-2058.81 222.15,-2068.3 219.9,-2076.82"/>
<polygon fill="black" stroke="black" points="216.48,-2076.07 217.22,-2086.64 223.23,-2077.92 216.48,-2076.07"/>
</g>
<!-- refactor_code -->
<g id="node46" class="node">
<title>refactor_code</title>
<path fill="lightblue" stroke="black" d="M116.5,-1775C116.5,-1775 29.5,-1775 29.5,-1775 23.5,-1775 17.5,-1769 17.5,-1763 17.5,-1763 17.5,-1719 17.5,-1719 17.5,-1713 23.5,-1707 29.5,-1707 29.5,-1707 116.5,-1707 116.5,-1707 122.5,-1707 128.5,-1713 128.5,-1719 128.5,-1719 128.5,-1763 128.5,-1763 128.5,-1769 122.5,-1775 116.5,-1775"/>
<text text-anchor="middle" x="73" y="-1759.8" font-family="Arial" font-size="14.00">Refactor for:</text>
<text text-anchor="middle" x="73" y="-1744.8" font-family="Arial" font-size="14.00">&#45; Clarity</text>
<text text-anchor="middle" x="73" y="-1729.8" font-family="Arial" font-size="14.00">&#45; Performance</text>
<text text-anchor="middle" x="73" y="-1714.8" font-family="Arial" font-size="14.00">&#45; Maintainability</text>
</g>
<!-- needs_refactor&#45;&gt;refactor_code -->
<g id="edge53" class="edge">
<title>needs_refactor&#45;&gt;refactor_code</title>
<path fill="none" stroke="black" d="M93.92,-1829.29C90.63,-1815.55 86.78,-1799.48 83.28,-1784.91"/>
<polygon fill="black" stroke="black" points="86.67,-1784.02 80.93,-1775.11 79.86,-1785.65 86.67,-1784.02"/>
<text text-anchor="middle" x="100.5" y="-1796.8" font-family="Arial" font-size="14.00">Yes</text>
</g>
<!-- invoke_security -->
<g id="node48" class="node">
<title>invoke_security</title>
<path fill="lightblue" stroke="black" d="M159.5,-1560C159.5,-1560 74.5,-1560 74.5,-1560 68.5,-1560 62.5,-1554 62.5,-1548 62.5,-1548 62.5,-1534 62.5,-1534 62.5,-1528 68.5,-1522 74.5,-1522 74.5,-1522 159.5,-1522 159.5,-1522 165.5,-1522 171.5,-1528 171.5,-1534 171.5,-1534 171.5,-1548 171.5,-1548 171.5,-1554 165.5,-1560 159.5,-1560"/>
<text text-anchor="middle" x="117" y="-1544.8" font-family="Arial" font-size="14.00">Invoke Security</text>
<text text-anchor="middle" x="117" y="-1529.8" font-family="Arial" font-size="14.00">Skills</text>
</g>
<!-- needs_refactor&#45;&gt;invoke_security -->
<g id="edge60" class="edge">
<title>needs_refactor&#45;&gt;invoke_security</title>
<path fill="none" stroke="black" d="M117.44,-1832.51C124.97,-1815.95 133.2,-1794.86 137,-1775 151.01,-1701.88 134.68,-1613.96 124.3,-1569.96"/>
<polygon fill="black" stroke="black" points="127.64,-1568.89 121.87,-1560 120.84,-1570.55 127.64,-1568.89"/>
<text text-anchor="middle" x="151" y="-1677.8" font-family="Arial" font-size="14.00">No</text>
</g>
<!-- verify_tests -->
<g id="node47" class="node">
<title>verify_tests</title>
<path fill="lightblue" stroke="black" d="M111,-1656C111,-1656 49,-1656 49,-1656 43,-1656 37,-1650 37,-1644 37,-1644 37,-1630 37,-1630 37,-1624 43,-1618 49,-1618 49,-1618 111,-1618 111,-1618 117,-1618 123,-1624 123,-1630 123,-1630 123,-1644 123,-1644 123,-1650 117,-1656 111,-1656"/>
<text text-anchor="middle" x="80" y="-1640.8" font-family="Arial" font-size="14.00">Verify Tests</text>
<text text-anchor="middle" x="80" y="-1625.8" font-family="Arial" font-size="14.00">Still Pass</text>
</g>
<!-- refactor_code&#45;&gt;verify_tests -->
<g id="edge54" class="edge">
<title>refactor_code&#45;&gt;verify_tests</title>
<path fill="none" stroke="black" d="M75.27,-1706.88C76.17,-1693.84 77.19,-1679 78.05,-1666.45"/>
<polygon fill="black" stroke="black" points="81.56,-1666.32 78.76,-1656.11 74.58,-1665.84 81.56,-1666.32"/>
</g>
<!-- verify_tests&#45;&gt;invoke_security -->
<g id="edge61" class="edge">
<title>verify_tests&#45;&gt;invoke_security</title>
<path fill="none" stroke="black" d="M87.13,-1617.88C92.51,-1604.22 99.97,-1585.26 106.09,-1569.71"/>
<polygon fill="black" stroke="black" points="109.48,-1570.66 109.89,-1560.07 102.97,-1568.09 109.48,-1570.66"/>
</g>
<!-- check_github_actions -->
<g id="node49" class="node">
<title>check_github_actions</title>
<path fill="lightblue" stroke="black" d="M181,-1485C181,-1485 53,-1485 53,-1485 47,-1485 41,-1479 41,-1473 41,-1473 41,-1429 41,-1429 41,-1423 47,-1417 53,-1417 53,-1417 181,-1417 181,-1417 187,-1417 193,-1423 193,-1429 193,-1429 193,-1473 193,-1473 193,-1479 187,-1485 181,-1485"/>
<text text-anchor="middle" x="117" y="-1469.8" font-family="Arial" font-size="14.00">Check GitHub Actions:</text>
<text text-anchor="middle" x="117" y="-1454.8" font-family="Arial" font-size="14.00">&#45; Linting</text>
<text text-anchor="middle" x="117" y="-1439.8" font-family="Arial" font-size="14.00">&#45; Security Scanning</text>
<text text-anchor="middle" x="117" y="-1424.8" font-family="Arial" font-size="14.00">&#45; Dependency Audit</text>
</g>
<!-- invoke_security&#45;&gt;check_github_actions -->
<g id="edge56" class="edge">
<title>invoke_security&#45;&gt;check_github_actions</title>
<path fill="none" stroke="black" d="M117,-1521.77C117,-1514 117,-1504.59 117,-1495.22"/>
<polygon fill="black" stroke="black" points="120.5,-1495.15 117,-1485.15 113.5,-1495.15 120.5,-1495.15"/>
</g>
<!-- check_logging -->
<g id="node50" class="node">
<title>check_logging</title>
<path fill="lightblue" stroke="black" d="M159,-1380C159,-1380 75,-1380 75,-1380 69,-1380 63,-1374 63,-1368 63,-1368 63,-1354 63,-1354 63,-1348 69,-1342 75,-1342 75,-1342 159,-1342 159,-1342 165,-1342 171,-1348 171,-1354 171,-1354 171,-1368 171,-1368 171,-1374 165,-1380 159,-1380"/>
<text text-anchor="middle" x="117" y="-1364.8" font-family="Arial" font-size="14.00">Verify Logging</text>
<text text-anchor="middle" x="117" y="-1349.8" font-family="Arial" font-size="14.00">&amp; Observability</text>
</g>
<!-- check_github_actions&#45;&gt;check_logging -->
<g id="edge57" class="edge">
<title>check_github_actions&#45;&gt;check_logging</title>
<path fill="none" stroke="black" d="M117,-1416.98C117,-1408.2 117,-1398.8 117,-1390.3"/>
<polygon fill="black" stroke="black" points="120.5,-1390.13 117,-1380.13 113.5,-1390.13 120.5,-1390.13"/>
</g>
<!-- check_metrics -->
<g id="node51" class="node">
<title>check_metrics</title>
<path fill="lightblue" stroke="black" d="M163.5,-1305C163.5,-1305 70.5,-1305 70.5,-1305 64.5,-1305 58.5,-1299 58.5,-1293 58.5,-1293 58.5,-1279 58.5,-1279 58.5,-1273 64.5,-1267 70.5,-1267 70.5,-1267 163.5,-1267 163.5,-1267 169.5,-1267 175.5,-1273 175.5,-1279 175.5,-1279 175.5,-1293 175.5,-1293 175.5,-1299 169.5,-1305 163.5,-1305"/>
<text text-anchor="middle" x="117" y="-1289.8" font-family="Arial" font-size="14.00">Verify Metrics</text>
<text text-anchor="middle" x="117" y="-1274.8" font-family="Arial" font-size="14.00">&amp; Health Checks</text>
</g>
<!-- check_logging&#45;&gt;check_metrics -->
<g id="edge58" class="edge">
<title>check_logging&#45;&gt;check_metrics</title>
<path fill="none" stroke="black" d="M117,-1341.96C117,-1333.88 117,-1324.18 117,-1315.18"/>
<polygon fill="black" stroke="black" points="120.5,-1315.09 117,-1305.09 113.5,-1315.09 120.5,-1315.09"/>
</g>
<!-- check_error_handling -->
<g id="node52" class="node">
<title>check_error_handling</title>
<path fill="lightblue" stroke="black" d="M147,-1230C147,-1230 87,-1230 87,-1230 81,-1230 75,-1224 75,-1218 75,-1218 75,-1204 75,-1204 75,-1198 81,-1192 87,-1192 87,-1192 147,-1192 147,-1192 153,-1192 159,-1198 159,-1204 159,-1204 159,-1218 159,-1218 159,-1224 153,-1230 147,-1230"/>
<text text-anchor="middle" x="117" y="-1214.8" font-family="Arial" font-size="14.00">Verify Error</text>
<text text-anchor="middle" x="117" y="-1199.8" font-family="Arial" font-size="14.00">Handling</text>
</g>
<!-- check_metrics&#45;&gt;check_error_handling -->
<g id="edge59" class="edge">
<title>check_metrics&#45;&gt;check_error_handling</title>
<path fill="none" stroke="black" d="M117,-1266.96C117,-1258.88 117,-1249.18 117,-1240.18"/>
<polygon fill="black" stroke="black" points="120.5,-1240.09 117,-1230.09 113.5,-1240.09 120.5,-1240.09"/>
</g>
<!-- update_repo_readme -->
<g id="node53" class="node">
<title>update_repo_readme</title>
<path fill="lightblue" stroke="black" d="M170.5,-1134C170.5,-1134 63.5,-1134 63.5,-1134 57.5,-1134 51.5,-1128 51.5,-1122 51.5,-1122 51.5,-1108 51.5,-1108 51.5,-1102 57.5,-1096 63.5,-1096 63.5,-1096 170.5,-1096 170.5,-1096 176.5,-1096 182.5,-1102 182.5,-1108 182.5,-1108 182.5,-1122 182.5,-1122 182.5,-1128 176.5,-1134 170.5,-1134"/>
<text text-anchor="middle" x="117" y="-1118.8" font-family="Arial" font-size="14.00">Update Each Repo</text>
<text text-anchor="middle" x="117" y="-1103.8" font-family="Arial" font-size="14.00">README.md</text>
</g>
<!-- check_error_handling&#45;&gt;update_repo_readme -->
<g id="edge65" class="edge">
<title>check_error_handling&#45;&gt;update_repo_readme</title>
<path fill="none" stroke="black" d="M117,-1191.88C117,-1178.35 117,-1159.62 117,-1144.15"/>
<polygon fill="black" stroke="black" points="120.5,-1144.07 117,-1134.07 113.5,-1144.07 120.5,-1144.07"/>
</g>
<!-- update_api_docs -->
<g id="node54" class="node">
<title>update_api_docs</title>
<path fill="lightblue" stroke="black" d="M159,-1059C159,-1059 75,-1059 75,-1059 69,-1059 63,-1053 63,-1047 63,-1047 63,-1033 63,-1033 63,-1027 69,-1021 75,-1021 75,-1021 159,-1021 159,-1021 165,-1021 171,-1027 171,-1033 171,-1033 171,-1047 171,-1047 171,-1053 165,-1059 159,-1059"/>
<text text-anchor="middle" x="117" y="-1043.8" font-family="Arial" font-size="14.00">Update API</text>
<text text-anchor="middle" x="117" y="-1028.8" font-family="Arial" font-size="14.00">Documentation</text>
</g>
<!-- update_repo_readme&#45;&gt;update_api_docs -->
<g id="edge62" class="edge">
<title>update_repo_readme&#45;&gt;update_api_docs</title>
<path fill="none" stroke="black" d="M117,-1095.96C117,-1087.88 117,-1078.18 117,-1069.18"/>
<polygon fill="black" stroke="black" points="120.5,-1069.09 117,-1059.09 113.5,-1069.09 120.5,-1069.09"/>
</g>
<!-- update_architecture -->
<g id="node55" class="node">
<title>update_architecture</title>
<path fill="lightblue" stroke="black" d="M176.5,-984C176.5,-984 57.5,-984 57.5,-984 51.5,-984 45.5,-978 45.5,-972 45.5,-972 45.5,-958 45.5,-958 45.5,-952 51.5,-946 57.5,-946 57.5,-946 176.5,-946 176.5,-946 182.5,-946 188.5,-952 188.5,-958 188.5,-958 188.5,-972 188.5,-972 188.5,-978 182.5,-984 176.5,-984"/>
<text text-anchor="middle" x="117" y="-968.8" font-family="Arial" font-size="14.00">Update Architecture</text>
<text text-anchor="middle" x="117" y="-953.8" font-family="Arial" font-size="14.00">Diagrams (if needed)</text>
</g>
<!-- update_api_docs&#45;&gt;update_architecture -->
<g id="edge63" class="edge">
<title>update_api_docs&#45;&gt;update_architecture</title>
<path fill="none" stroke="black" d="M117,-1020.96C117,-1012.88 117,-1003.18 117,-994.18"/>
<polygon fill="black" stroke="black" points="120.5,-994.09 117,-984.09 113.5,-994.09 120.5,-994.09"/>
</g>
<!-- create_pr_docs -->
<g id="node56" class="node">
<title>create_pr_docs</title>
<path fill="lightblue" stroke="black" d="M168,-909C168,-909 80,-909 80,-909 74,-909 68,-903 68,-897 68,-897 68,-883 68,-883 68,-877 74,-871 80,-871 80,-871 168,-871 168,-871 174,-871 180,-877 180,-883 180,-883 180,-897 180,-897 180,-903 174,-909 168,-909"/>
<text text-anchor="middle" x="124" y="-893.8" font-family="Arial" font-size="14.00">Create PR Files</text>
<text text-anchor="middle" x="124" y="-878.8" font-family="Arial" font-size="14.00">in ./docs/prs</text>
</g>
<!-- update_architecture&#45;&gt;create_pr_docs -->
<g id="edge64" class="edge">
<title>update_architecture&#45;&gt;create_pr_docs</title>
<path fill="none" stroke="black" d="M118.73,-945.96C119.5,-937.88 120.44,-928.18 121.3,-919.18"/>
<polygon fill="black" stroke="black" points="124.79,-919.38 122.27,-909.09 117.83,-918.71 124.79,-919.38"/>
</g>
<!-- integration_test -->
<g id="node57" class="node">
<title>integration_test</title>
<path fill="lightblue" stroke="black" d="M227.5,-813C227.5,-813 142.5,-813 142.5,-813 136.5,-813 130.5,-807 130.5,-801 130.5,-801 130.5,-787 130.5,-787 130.5,-781 136.5,-775 142.5,-775 142.5,-775 227.5,-775 227.5,-775 233.5,-775 239.5,-781 239.5,-787 239.5,-787 239.5,-801 239.5,-801 239.5,-807 233.5,-813 227.5,-813"/>
<text text-anchor="middle" x="185" y="-797.8" font-family="Arial" font-size="14.00">Run Integration</text>
<text text-anchor="middle" x="185" y="-782.8" font-family="Arial" font-size="14.00">Tests</text>
</g>
<!-- create_pr_docs&#45;&gt;integration_test -->
<g id="edge68" class="edge">
<title>create_pr_docs&#45;&gt;integration_test</title>
<path fill="none" stroke="black" d="M135.76,-870.88C144.79,-856.96 157.4,-837.53 167.59,-821.82"/>
<polygon fill="black" stroke="black" points="170.77,-823.36 173.27,-813.07 164.9,-819.55 170.77,-823.36"/>
</g>
<!-- verify_ecosystem -->
<g id="node58" class="node">
<title>verify_ecosystem</title>
<path fill="lightblue" stroke="black" d="M221.5,-724C221.5,-724 162.5,-724 162.5,-724 156.5,-724 150.5,-718 150.5,-712 150.5,-712 150.5,-698 150.5,-698 150.5,-692 156.5,-686 162.5,-686 162.5,-686 221.5,-686 221.5,-686 227.5,-686 233.5,-692 233.5,-698 233.5,-698 233.5,-712 233.5,-712 233.5,-718 227.5,-724 221.5,-724"/>
<text text-anchor="middle" x="192" y="-708.8" font-family="Arial" font-size="14.00">Verify Full</text>
<text text-anchor="middle" x="192" y="-693.8" font-family="Arial" font-size="14.00">Ecosystem</text>
</g>
<!-- integration_test&#45;&gt;verify_ecosystem -->
<g id="edge66" class="edge">
<title>integration_test&#45;&gt;verify_ecosystem</title>
<path fill="none" stroke="black" d="M186.45,-774.97C187.4,-763.19 188.66,-747.56 189.73,-734.16"/>
<polygon fill="black" stroke="black" points="193.24,-734.25 190.55,-724 186.26,-733.69 193.24,-734.25"/>
</g>
<!-- ready_for_pr -->
<g id="node59" class="node">
<title>ready_for_pr</title>
<path fill="lightblue" stroke="black" d="M209.77,-644.77C209.77,-644.77 131.23,-615.23 131.23,-615.23 125.62,-613.11 125.62,-608.89 131.23,-606.77 131.23,-606.77 209.77,-577.23 209.77,-577.23 215.38,-575.11 226.62,-575.11 232.23,-577.23 232.23,-577.23 310.77,-606.77 310.77,-606.77 316.38,-608.89 316.38,-613.11 310.77,-615.23 310.77,-615.23 232.23,-644.77 232.23,-644.77 226.62,-646.89 215.38,-646.89 209.77,-644.77"/>
<text text-anchor="middle" x="221" y="-614.8" font-family="Arial" font-size="14.00">Ready for</text>
<text text-anchor="middle" x="221" y="-599.8" font-family="Arial" font-size="14.00">Pull Request?</text>
</g>
<!-- verify_ecosystem&#45;&gt;ready_for_pr -->
<g id="edge67" class="edge">
<title>verify_ecosystem&#45;&gt;ready_for_pr</title>
<path fill="none" stroke="black" d="M197.73,-685.82C200.51,-677 203.98,-666 207.38,-655.2"/>
<polygon fill="black" stroke="black" points="210.8,-655.99 210.47,-645.41 204.13,-653.89 210.8,-655.99"/>
</g>
<!-- create_commits -->
<g id="node60" class="node">
<title>create_commits</title>
<path fill="lightblue" stroke="black" d="M274.5,-501C274.5,-501 167.5,-501 167.5,-501 161.5,-501 155.5,-495 155.5,-489 155.5,-489 155.5,-460 155.5,-460 155.5,-454 161.5,-448 167.5,-448 167.5,-448 274.5,-448 274.5,-448 280.5,-448 286.5,-454 286.5,-460 286.5,-460 286.5,-489 286.5,-489 286.5,-495 280.5,-501 274.5,-501"/>
<text text-anchor="middle" x="221" y="-485.8" font-family="Arial" font-size="14.00">Create Commits</text>
<text text-anchor="middle" x="221" y="-470.8" font-family="Arial" font-size="14.00">with Conventional</text>
<text text-anchor="middle" x="221" y="-455.8" font-family="Arial" font-size="14.00">Commit Messages</text>
</g>
<!-- ready_for_pr&#45;&gt;create_commits -->
<g id="edge72" class="edge">
<title>ready_for_pr&#45;&gt;create_commits</title>
<path fill="none" stroke="black" d="M221,-572.89C221,-553.73 221,-530.46 221,-511.47"/>
<polygon fill="black" stroke="black" points="224.5,-511.42 221,-501.42 217.5,-511.42 224.5,-511.42"/>
<text text-anchor="middle" x="232.5" y="-543.8" font-family="Arial" font-size="14.00">Yes</text>
</g>
<!-- address_issues -->
<g id="node64" class="node">
<title>address_issues</title>
<path fill="lightblue" stroke="black" d="M318.5,-909C318.5,-909 217.5,-909 217.5,-909 211.5,-909 205.5,-903 205.5,-897 205.5,-897 205.5,-883 205.5,-883 205.5,-877 211.5,-871 217.5,-871 217.5,-871 318.5,-871 318.5,-871 324.5,-871 330.5,-877 330.5,-883 330.5,-883 330.5,-897 330.5,-897 330.5,-903 324.5,-909 318.5,-909"/>
<text text-anchor="middle" x="268" y="-893.8" font-family="Arial" font-size="14.00">Address</text>
<text text-anchor="middle" x="268" y="-878.8" font-family="Arial" font-size="14.00">Remaining Issues</text>
</g>
<!-- ready_for_pr&#45;&gt;address_issues -->
<g id="edge73" class="edge">
<title>ready_for_pr&#45;&gt;address_issues</title>
<path fill="none" stroke="black" d="M231.58,-645.26C235.3,-657.91 239.24,-672.52 242,-686 254.64,-747.73 262.24,-821.34 265.72,-860.76"/>
<polygon fill="black" stroke="black" points="262.25,-861.27 266.6,-870.93 269.23,-860.67 262.25,-861.27"/>
<text text-anchor="middle" x="263" y="-745.8" font-family="Arial" font-size="14.00">No</text>
</g>
<!-- push_branches -->
<g id="node61" class="node">
<title>push_branches</title>
<path fill="lightblue" stroke="black" d="M263,-411C263,-411 179,-411 179,-411 173,-411 167,-405 167,-399 167,-399 167,-385 167,-385 167,-379 173,-373 179,-373 179,-373 263,-373 263,-373 269,-373 275,-379 275,-385 275,-385 275,-399 275,-399 275,-405 269,-411 263,-411"/>
<text text-anchor="middle" x="221" y="-395.8" font-family="Arial" font-size="14.00">Push Branches</text>
<text text-anchor="middle" x="221" y="-380.8" font-family="Arial" font-size="14.00">to Remote</text>
</g>
<!-- create_commits&#45;&gt;push_branches -->
<g id="edge69" class="edge">
<title>create_commits&#45;&gt;push_branches</title>
<path fill="none" stroke="black" d="M221,-447.59C221,-439.31 221,-430.11 221,-421.65"/>
<polygon fill="black" stroke="black" points="224.5,-421.47 221,-411.47 217.5,-421.47 224.5,-421.47"/>
</g>
<!-- create_prs -->
<g id="node62" class="node">
<title>create_prs</title>
<path fill="lightblue" stroke="black" d="M260.5,-336C260.5,-336 181.5,-336 181.5,-336 175.5,-336 169.5,-330 169.5,-324 169.5,-324 169.5,-310 169.5,-310 169.5,-304 175.5,-298 181.5,-298 181.5,-298 260.5,-298 260.5,-298 266.5,-298 272.5,-304 272.5,-310 272.5,-310 272.5,-324 272.5,-324 272.5,-330 266.5,-336 260.5,-336"/>
<text text-anchor="middle" x="221" y="-320.8" font-family="Arial" font-size="14.00">Create PRs</text>
<text text-anchor="middle" x="221" y="-305.8" font-family="Arial" font-size="14.00">for Each Repo</text>
</g>
<!-- push_branches&#45;&gt;create_prs -->
<g id="edge70" class="edge">
<title>push_branches&#45;&gt;create_prs</title>
<path fill="none" stroke="black" d="M221,-372.96C221,-364.88 221,-355.18 221,-346.18"/>
<polygon fill="black" stroke="black" points="224.5,-346.09 221,-336.09 217.5,-346.09 224.5,-346.09"/>
</g>
<!-- link_prs -->
<g id="node63" class="node">
<title>link_prs</title>
<path fill="lightblue" stroke="black" d="M269.5,-261C269.5,-261 172.5,-261 172.5,-261 166.5,-261 160.5,-255 160.5,-249 160.5,-249 160.5,-235 160.5,-235 160.5,-229 166.5,-223 172.5,-223 172.5,-223 269.5,-223 269.5,-223 275.5,-223 281.5,-229 281.5,-235 281.5,-235 281.5,-249 281.5,-249 281.5,-255 275.5,-261 269.5,-261"/>
<text text-anchor="middle" x="221" y="-245.8" font-family="Arial" font-size="14.00">Link Related PRs</text>
<text text-anchor="middle" x="221" y="-230.8" font-family="Arial" font-size="14.00">in Descriptions</text>
</g>
<!-- create_prs&#45;&gt;link_prs -->
<g id="edge71" class="edge">
<title>create_prs&#45;&gt;link_prs</title>
<path fill="none" stroke="black" d="M221,-297.96C221,-289.88 221,-280.18 221,-271.18"/>
<polygon fill="black" stroke="black" points="224.5,-271.09 221,-261.09 217.5,-271.09 224.5,-271.09"/>
</g>
<!-- update_todo_master_final -->
<g id="node65" class="node">
<title>update_todo_master_final</title>
<path fill="lightblue" stroke="black" d="M303.5,-186C303.5,-186 138.5,-186 138.5,-186 132.5,-186 126.5,-180 126.5,-174 126.5,-174 126.5,-160 126.5,-160 126.5,-154 132.5,-148 138.5,-148 138.5,-148 303.5,-148 303.5,-148 309.5,-148 315.5,-154 315.5,-160 315.5,-160 315.5,-174 315.5,-174 315.5,-180 309.5,-186 303.5,-186"/>
<text text-anchor="middle" x="221" y="-170.8" font-family="Arial" font-size="14.00">Update TODO&#45;MASTER.md</text>
<text text-anchor="middle" x="221" y="-155.8" font-family="Arial" font-size="14.00">Mark Progress</text>
</g>
<!-- link_prs&#45;&gt;update_todo_master_final -->
<g id="edge75" class="edge">
<title>link_prs&#45;&gt;update_todo_master_final</title>
<path fill="none" stroke="black" d="M221,-222.96C221,-214.88 221,-205.18 221,-196.18"/>
<polygon fill="black" stroke="black" points="224.5,-196.09 221,-186.09 217.5,-196.09 224.5,-196.09"/>
</g>
<!-- address_issues&#45;&gt;integration_test -->
<g id="edge74" class="edge">
<title>address_issues&#45;&gt;integration_test</title>
<path fill="none" stroke="black" d="M252,-870.88C239.48,-856.7 221.91,-836.81 207.91,-820.94"/>
<polygon fill="black" stroke="black" points="210.2,-818.25 200.95,-813.07 204.95,-822.88 210.2,-818.25"/>
</g>
<!-- session_summary -->
<g id="node66" class="node">
<title>session_summary</title>
<path fill="lightblue" stroke="black" d="M271.5,-111C271.5,-111 170.5,-111 170.5,-111 164.5,-111 158.5,-105 158.5,-99 158.5,-99 158.5,-85 158.5,-85 158.5,-79 164.5,-73 170.5,-73 170.5,-73 271.5,-73 271.5,-73 277.5,-73 283.5,-79 283.5,-85 283.5,-85 283.5,-99 283.5,-99 283.5,-105 277.5,-111 271.5,-111"/>
<text text-anchor="middle" x="221" y="-95.8" font-family="Arial" font-size="14.00">Generate Session</text>
<text text-anchor="middle" x="221" y="-80.8" font-family="Arial" font-size="14.00">Summary</text>
</g>
<!-- update_todo_master_final&#45;&gt;session_summary -->
<g id="edge76" class="edge">
<title>update_todo_master_final&#45;&gt;session_summary</title>
<path fill="none" stroke="black" d="M221,-147.96C221,-139.88 221,-130.18 221,-121.18"/>
<polygon fill="black" stroke="black" points="224.5,-121.09 221,-111.09 217.5,-121.09 224.5,-121.09"/>
</g>
<!-- end -->
<g id="node67" class="node">
<title>end</title>
<ellipse fill="lightcoral" stroke="black" cx="221" cy="-18" rx="59.59" ry="18"/>
<text text-anchor="middle" x="221" y="-14.3" font-family="Arial" font-size="14.00">End Session</text>
</g>
<!-- session_summary&#45;&gt;end -->
<g id="edge77" class="edge">
<title>session_summary&#45;&gt;end</title>
<path fill="none" stroke="black" d="M221,-72.83C221,-64.89 221,-55.41 221,-46.63"/>
<polygon fill="black" stroke="black" points="224.5,-46.42 221,-36.42 217.5,-46.42 224.5,-46.42"/>
</g>
<!-- parallel_note -->
<g id="node68" class="node">
<title>parallel_note</title>
<polygon fill="lightyellow" stroke="black" points="441,-4730 301,-4730 301,-4677 447,-4677 447,-4724 441,-4730"/>
<polyline fill="none" stroke="black" points="441,-4730 441,-4724 "/>
<polyline fill="none" stroke="black" points="447,-4724 441,-4724 "/>
<text text-anchor="middle" x="374" y="-4714.8" font-family="Arial" font-size="14.00">Multiple repos can be</text>
<text text-anchor="middle" x="374" y="-4699.8" font-family="Arial" font-size="14.00">worked on in parallel</text>
<text text-anchor="middle" x="374" y="-4684.8" font-family="Arial" font-size="14.00">if dependencies allow</text>
</g>
<!-- legend_decision -->
<g id="node69" class="node">
<title>legend_decision</title>
<path fill="yellow" stroke="black" d="M856.21,-4719.26C856.21,-4719.26 784.94,-4705.74 784.94,-4705.74 779.05,-4704.62 779.05,-4702.38 784.94,-4701.26 784.94,-4701.26 856.21,-4687.74 856.21,-4687.74 862.11,-4686.62 873.89,-4686.62 879.79,-4687.74 879.79,-4687.74 951.06,-4701.26 951.06,-4701.26 956.95,-4702.38 956.95,-4704.62 951.06,-4705.74 951.06,-4705.74 879.79,-4719.26 879.79,-4719.26 873.89,-4720.38 862.11,-4720.38 856.21,-4719.26"/>
<text text-anchor="middle" x="868" y="-4699.8" font-family="Arial" font-size="14.00">Decision Point</text>
</g>
<!-- legend_process -->
<g id="node70" class="node">
<title>legend_process</title>
<path fill="none" stroke="black" d="M743.5,-4721.5C743.5,-4721.5 702.5,-4721.5 702.5,-4721.5 696.5,-4721.5 690.5,-4715.5 690.5,-4709.5 690.5,-4709.5 690.5,-4697.5 690.5,-4697.5 690.5,-4691.5 696.5,-4685.5 702.5,-4685.5 702.5,-4685.5 743.5,-4685.5 743.5,-4685.5 749.5,-4685.5 755.5,-4691.5 755.5,-4697.5 755.5,-4697.5 755.5,-4709.5 755.5,-4709.5 755.5,-4715.5 749.5,-4721.5 743.5,-4721.5"/>
<text text-anchor="middle" x="723" y="-4699.8" font-family="Arial" font-size="14.00">Process</text>
</g>
<!-- legend_start_end -->
<g id="node71" class="node">
<title>legend_start_end</title>
<ellipse fill="lightgreen" stroke="black" cx="625" cy="-4703.5" rx="47.39" ry="18"/>
<text text-anchor="middle" x="625" y="-4699.8" font-family="Arial" font-size="14.00">Start/End</text>
</g>
<!-- legend_critical -->
<g id="node72" class="node">
<title>legend_critical</title>
<path fill="none" stroke="black" d="M547.5,-4721.5C547.5,-4721.5 482.5,-4721.5 482.5,-4721.5 476.5,-4721.5 470.5,-4715.5 470.5,-4709.5 470.5,-4709.5 470.5,-4697.5 470.5,-4697.5 470.5,-4691.5 476.5,-4685.5 482.5,-4685.5 482.5,-4685.5 547.5,-4685.5 547.5,-4685.5 553.5,-4685.5 559.5,-4691.5 559.5,-4697.5 559.5,-4697.5 559.5,-4709.5 559.5,-4709.5 559.5,-4715.5 553.5,-4721.5 547.5,-4721.5"/>
<text text-anchor="middle" x="515" y="-4699.8" font-family="Arial" font-size="14.00">Critical Path</text>
</g>
</g>
</svg>
