<?xml version="1.0" encoding="UTF-8" standalone="no"?>
<!DOCTYPE svg PUBLIC "-//W3C//DTD SVG 1.1//EN"
 "http://www.w3.org/Graphics/SVG/1.1/DTD/svg11.dtd">
<!-- Generated by graphviz version 2.43.0 (0)
 -->
<!-- Title: WorkflowDocumentationMap Pages: 1 -->
<svg width="3939pt" height="729pt"
 viewBox="0.00 0.00 3939.00 729.00" xmlns="http://www.w3.org/2000/svg" xmlns:xlink="http://www.w3.org/1999/xlink">
<g id="graph0" class="graph" transform="scale(1 1) rotate(0) translate(4 725)">
<title>WorkflowDocumentationMap</title>
<polygon fill="white" stroke="transparent" points="-4,4 -4,-725 3935,-725 3935,4 -4,4"/>
<g id="clust1" class="cluster">
<title>cluster_entry</title>
<polygon fill="lightgreen" stroke="black" points="8,-246.5 8,-527 210,-527 210,-246.5 8,-246.5"/>
<text text-anchor="middle" x="109" y="-511.8" font-family="Times,serif" font-size="14.00">Start Here</text>
</g>
<g id="clust2" class="cluster">
<title>cluster_core</title>
<polygon fill="lightblue" stroke="black" points="271,-30.5 271,-527 655,-527 655,-30.5 271,-30.5"/>
<text text-anchor="middle" x="463" y="-511.8" font-family="Times,serif" font-size="14.00">Core Workflow Documents</text>
</g>
<g id="clust3" class="cluster">
<title>cluster_support</title>
<polygon fill="lavender" stroke="black" points="333,-575 333,-713 1041,-713 1041,-575 333,-575"/>
<text text-anchor="middle" x="687" y="-697.8" font-family="Times,serif" font-size="14.00">Supporting Documentation</text>
</g>
<g id="clust4" class="cluster">
<title>cluster_skills</title>
<polygon fill="lightyellow" stroke="black" points="663,-8 663,-191 1015,-191 1015,-8 663,-8"/>
<text text-anchor="middle" x="839" y="-175.8" font-family="Times,serif" font-size="14.00">Skills Repository</text>
</g>
<g id="clust5" class="cluster">
<title>cluster_journeys</title>
<polygon fill="none" stroke="black" stroke-dasharray="1,5" points="1049,-605.5 1049,-682.5 2073,-682.5 2073,-605.5 1049,-605.5"/>
<text text-anchor="middle" x="1561" y="-667.3" font-family="Times,serif" font-size="14.00">User Journeys</text>
</g>
<g id="clust6" class="cluster">
<title>cluster_legend</title>
<polygon fill="none" stroke="black" points="2081,-606.5 2081,-681.5 2687,-681.5 2687,-606.5 2081,-606.5"/>
<text text-anchor="middle" x="2384" y="-666.3" font-family="Times,serif" font-size="14.00">Legend</text>
</g>
<g id="clust7" class="cluster">
<title>cluster_recommendations</title>
<polygon fill="none" stroke="black" points="2695,-605.5 2695,-682.5 3923,-682.5 3923,-605.5 2695,-605.5"/>
<text text-anchor="middle" x="3309" y="-667.3" font-family="Times,serif" font-size="14.00">Document Recommendations</text>
</g>
<!-- readme -->
<g id="node1" class="node">
<title>readme</title>
<path fill="lightyellow" stroke="black" d="M190,-496C190,-496 28,-496 28,-496 22,-496 16,-490 16,-484 16,-484 16,-424 16,-424 16,-418 22,-412 28,-412 28,-412 190,-412 190,-412 196,-412 202,-418 202,-424 202,-424 202,-484 202,-484 202,-490 196,-496 190,-496"/>
<text text-anchor="middle" x="109" y="-480.8" font-family="Arial" font-size="14.00">README&#45;WORKFLOW.md</text>
<text text-anchor="middle" x="109" y="-465.8" font-family="Arial" font-size="14.00">(You Are Here!)</text>
<text text-anchor="middle" x="109" y="-434.8" font-family="Arial" font-size="14.00">Quick navigation guide</text>
<text text-anchor="middle" x="109" y="-419.8" font-family="Arial" font-size="14.00">to all workflow docs</text>
</g>
<!-- todo -->
<g id="node2" class="node">
<title>todo</title>
<path fill="lightcyan" stroke="black" d="M146,-338.5C146,-338.5 28,-338.5 28,-338.5 22,-338.5 16,-332.5 16,-326.5 16,-326.5 16,-266.5 16,-266.5 16,-260.5 22,-254.5 28,-254.5 28,-254.5 146,-254.5 146,-254.5 152,-254.5 158,-260.5 158,-266.5 158,-266.5 158,-326.5 158,-326.5 158,-332.5 152,-338.5 146,-338.5"/>
<text text-anchor="middle" x="87" y="-323.3" font-family="Arial" font-size="14.00">TODO&#45;MASTER.md</text>
<text text-anchor="middle" x="87" y="-292.3" font-family="Arial" font-size="14.00">Current project state</text>
<text text-anchor="middle" x="87" y="-277.3" font-family="Arial" font-size="14.00">Active epics</text>
<text text-anchor="middle" x="87" y="-262.3" font-family="Arial" font-size="14.00">Next priorities</text>
</g>
<!-- readme&#45;&gt;todo -->
<g id="edge1" class="edge">
<title>readme&#45;&gt;todo</title>
<path fill="none" stroke="green" stroke-width="2" d="M103.16,-411.74C100.43,-392.42 97.15,-369.21 94.25,-348.77"/>
<polygon fill="green" stroke="green" stroke-width="2" points="97.69,-348.1 92.83,-338.69 90.76,-349.08 97.69,-348.1"/>
<text text-anchor="middle" x="138" y="-382.8" font-family="Arial" font-size="14.00">1. Check</text>
<text text-anchor="middle" x="138" y="-367.8" font-family="Arial" font-size="14.00">project state</text>
</g>
<!-- visuals -->
<g id="node4" class="node">
<title>visuals</title>
<path fill="lightsteelblue" stroke="black" d="M440.5,-338.5C440.5,-338.5 291.5,-338.5 291.5,-338.5 285.5,-338.5 279.5,-332.5 279.5,-326.5 279.5,-326.5 279.5,-266.5 279.5,-266.5 279.5,-260.5 285.5,-254.5 291.5,-254.5 291.5,-254.5 440.5,-254.5 440.5,-254.5 446.5,-254.5 452.5,-260.5 452.5,-266.5 452.5,-266.5 452.5,-326.5 452.5,-326.5 452.5,-332.5 446.5,-338.5 440.5,-338.5"/>
<text text-anchor="middle" x="366" y="-323.3" font-family="Arial" font-size="14.00">WORKFLOW.svg/png/pdf</text>
<text text-anchor="middle" x="366" y="-292.3" font-family="Arial" font-size="14.00">Visual diagrams</text>
<text text-anchor="middle" x="366" y="-277.3" font-family="Arial" font-size="14.00">Generated from .dot</text>
<text text-anchor="middle" x="366" y="-262.3" font-family="Arial" font-size="14.00">(Don&#39;t edit directly)</text>
</g>
<!-- readme&#45;&gt;visuals -->
<g id="edge4" class="edge">
<title>readme&#45;&gt;visuals</title>
<path fill="none" stroke="blue" d="M177.98,-411.94C185.71,-406.29 193.22,-400.26 200,-394 212.34,-382.6 209.89,-374.51 223,-364 237.15,-352.65 253.55,-342.73 270.08,-334.24"/>
<polygon fill="blue" stroke="blue" points="271.87,-337.26 279.27,-329.68 268.76,-330.99 271.87,-337.26"/>
<text text-anchor="middle" x="250" y="-382.8" font-family="Arial" font-size="14.00">Visual</text>
<text text-anchor="middle" x="250" y="-367.8" font-family="Arial" font-size="14.00">overview</text>
</g>
<!-- guide -->
<g id="node5" class="node">
<title>guide</title>
<path fill="mistyrose" stroke="black" d="M635,-346C635,-346 483,-346 483,-346 477,-346 471,-340 471,-334 471,-334 471,-259 471,-259 471,-253 477,-247 483,-247 483,-247 635,-247 635,-247 641,-247 647,-253 647,-259 647,-259 647,-334 647,-334 647,-340 641,-346 635,-346"/>
<text text-anchor="middle" x="559" y="-330.8" font-family="Arial" font-size="14.00">WORKFLOW&#45;GUIDE.md</text>
<text text-anchor="middle" x="559" y="-299.8" font-family="Arial" font-size="14.00">15,000+ words</text>
<text text-anchor="middle" x="559" y="-284.8" font-family="Arial" font-size="14.00">Comprehensive narrative</text>
<text text-anchor="middle" x="559" y="-269.8" font-family="Arial" font-size="14.00">All 15 phases explained</text>
<text text-anchor="middle" x="559" y="-254.8" font-family="Arial" font-size="14.00">Examples &amp; best practices</text>
</g>
<!-- readme&#45;&gt;guide -->
<g id="edge3" class="edge">
<title>readme&#45;&gt;guide</title>
<path fill="none" stroke="blue" d="M202.08,-427.45C227.27,-418.65 253.93,-407.53 277,-394 294.38,-383.81 292.61,-372.24 311,-364 372.28,-336.55 396.65,-365.17 461,-346 461.1,-345.97 461.2,-345.94 461.31,-345.91"/>
<polygon fill="blue" stroke="blue" points="462.46,-349.21 470.88,-342.79 460.28,-342.56 462.46,-349.21"/>
<text text-anchor="middle" x="335" y="-382.8" font-family="Arial" font-size="14.00">3. Deep</text>
<text text-anchor="middle" x="335" y="-367.8" font-family="Arial" font-size="14.00">dive</text>
</g>
<!-- checklist -->
<g id="node6" class="node">
<title>checklist</title>
<path fill="lightgoldenrodyellow" stroke="black" d="M532,-137.5C532,-137.5 354,-137.5 354,-137.5 348,-137.5 342,-131.5 342,-125.5 342,-125.5 342,-50.5 342,-50.5 342,-44.5 348,-38.5 354,-38.5 354,-38.5 532,-38.5 532,-38.5 538,-38.5 544,-44.5 544,-50.5 544,-50.5 544,-125.5 544,-125.5 544,-131.5 538,-137.5 532,-137.5"/>
<text text-anchor="middle" x="443" y="-122.3" font-family="Arial" font-size="14.00">WORKFLOW&#45;CHECKLIST.md</text>
<text text-anchor="middle" x="443" y="-91.3" font-family="Arial" font-size="14.00">Print&#45;friendly</text>
<text text-anchor="middle" x="443" y="-76.3" font-family="Arial" font-size="14.00">Quick reference</text>
<text text-anchor="middle" x="443" y="-61.3" font-family="Arial" font-size="14.00">Session checklist</text>
<text text-anchor="middle" x="443" y="-46.3" font-family="Arial" font-size="14.00">Command cheat sheet</text>
</g>
<!-- readme&#45;&gt;checklist -->
<g id="edge2" class="edge">
<title>readme&#45;&gt;checklist</title>
<path fill="none" stroke="green" stroke-width="2" d="M161.35,-411.95C166.48,-406.33 171.18,-400.31 175,-394 209.95,-336.15 173.33,-301.93 212,-246.5 242.59,-202.65 289.63,-167.37 333.29,-141.41"/>
<polygon fill="green" stroke="green" stroke-width="2" points="335.1,-144.41 341.97,-136.34 331.57,-138.36 335.1,-144.41"/>
<text text-anchor="middle" x="241" y="-300.3" font-family="Arial" font-size="14.00">2. Daily</text>
<text text-anchor="middle" x="241" y="-285.3" font-family="Arial" font-size="14.00">reference</text>
</g>
<!-- dot_file -->
<g id="node3" class="node">
<title>dot_file</title>
<path fill="white" stroke="black" d="M528.5,-496C528.5,-496 359.5,-496 359.5,-496 353.5,-496 347.5,-490 347.5,-484 347.5,-484 347.5,-424 347.5,-424 347.5,-418 353.5,-412 359.5,-412 359.5,-412 528.5,-412 528.5,-412 534.5,-412 540.5,-418 540.5,-424 540.5,-424 540.5,-484 540.5,-484 540.5,-490 534.5,-496 528.5,-496"/>
<text text-anchor="middle" x="444" y="-480.8" font-family="Arial" font-size="14.00">WORKFLOW.dot</text>
<text text-anchor="middle" x="444" y="-449.8" font-family="Arial" font-size="14.00">Machine&#45;readable</text>
<text text-anchor="middle" x="444" y="-434.8" font-family="Arial" font-size="14.00">GraphViz source</text>
<text text-anchor="middle" x="444" y="-419.8" font-family="Arial" font-size="14.00">(Edit this to change workflow)</text>
</g>
<!-- dot_file&#45;&gt;visuals -->
<g id="edge5" class="edge">
<title>dot_file&#45;&gt;visuals</title>
<path fill="none" stroke="orange" stroke-dasharray="5,2" d="M383.43,-411.77C378.55,-406.32 374.26,-400.39 371,-394 364.07,-380.4 361.43,-364.27 360.91,-349.14"/>
<polygon fill="orange" stroke="orange" points="364.41,-348.84 360.87,-338.86 357.41,-348.88 364.41,-348.84"/>
<text text-anchor="middle" x="417.5" y="-382.8" font-family="Arial" font-size="14.00">generate</text>
<text text-anchor="middle" x="417.5" y="-367.8" font-family="Arial" font-size="14.00">(dot command)</text>
</g>
<!-- dot_file&#45;&gt;guide -->
<g id="edge9" class="edge">
<title>dot_file&#45;&gt;guide</title>
<path fill="none" stroke="black" stroke-dasharray="5,2" d="M474.52,-411.74C487.5,-394.18 502.86,-373.41 516.89,-354.43"/>
<polygon fill="black" stroke="black" points="519.9,-356.26 523.03,-346.14 514.27,-352.1 519.9,-356.26"/>
<text text-anchor="middle" x="547" y="-382.8" font-family="Arial" font-size="14.00">documented</text>
<text text-anchor="middle" x="547" y="-367.8" font-family="Arial" font-size="14.00">in detail</text>
</g>
<!-- guide&#45;&gt;checklist -->
<g id="edge8" class="edge">
<title>guide&#45;&gt;checklist</title>
<path fill="none" stroke="black" stroke-dasharray="5,2" d="M470.96,-251.9C458.2,-243.88 448,-235.88 444,-229 429.91,-204.78 428.31,-173.99 430.8,-147.45"/>
<polygon fill="black" stroke="black" points="434.28,-147.84 431.94,-137.51 427.33,-147.05 434.28,-147.84"/>
<text text-anchor="middle" x="490.5" y="-217.8" font-family="Arial" font-size="14.00">distilled into</text>
<text text-anchor="middle" x="490.5" y="-202.8" font-family="Arial" font-size="14.00">quick reference</text>
</g>
<!-- global_skills -->
<g id="node10" class="node">
<title>global_skills</title>
<polygon fill="lightgoldenrodyellow" stroke="black" points="842.5,-160 839.5,-164 818.5,-164 815.5,-160 671.5,-160 671.5,-16 842.5,-16 842.5,-160"/>
<text text-anchor="middle" x="757" y="-144.8" font-family="Arial" font-size="14.00">~/.claude/skills/</text>
<text text-anchor="middle" x="757" y="-113.8" font-family="Arial" font-size="14.00">Global development skills</text>
<text text-anchor="middle" x="757" y="-98.8" font-family="Arial" font-size="14.00">&#45; go&#45;development/</text>
<text text-anchor="middle" x="757" y="-83.8" font-family="Arial" font-size="14.00">&#45; python&#45;development/</text>
<text text-anchor="middle" x="757" y="-68.8" font-family="Arial" font-size="14.00">&#45; typescript&#45;development/</text>
<text text-anchor="middle" x="757" y="-53.8" font-family="Arial" font-size="14.00">&#45; docker&#45;deployment/</text>
<text text-anchor="middle" x="757" y="-38.8" font-family="Arial" font-size="14.00">&#45; security&#45;audit/</text>
<text text-anchor="middle" x="757" y="-23.8" font-family="Arial" font-size="14.00">&#45; testing&#45;protocols/</text>
</g>
<!-- guide&#45;&gt;global_skills -->
<g id="edge11" class="edge">
<title>guide&#45;&gt;global_skills</title>
<path fill="none" stroke="purple" stroke-dasharray="1,5" d="M605.67,-246.82C628.35,-223.17 656.17,-194.16 681.74,-167.49"/>
<polygon fill="purple" stroke="purple" points="684.49,-169.68 688.89,-160.04 679.44,-164.83 684.49,-169.68"/>
<text text-anchor="middle" x="687" y="-217.8" font-family="Arial" font-size="14.00">invokes</text>
<text text-anchor="middle" x="687" y="-202.8" font-family="Arial" font-size="14.00">when needed</text>
</g>
<!-- local_config -->
<g id="node11" class="node">
<title>local_config</title>
<polygon fill="lightcyan" stroke="black" points="1007,-137.5 1004,-141.5 983,-141.5 980,-137.5 861,-137.5 861,-38.5 1007,-38.5 1007,-137.5"/>
<text text-anchor="middle" x="934" y="-122.3" font-family="Arial" font-size="14.00">./project&#45;plan/.claude/</text>
<text text-anchor="middle" x="934" y="-91.3" font-family="Arial" font-size="14.00">Local project config</text>
<text text-anchor="middle" x="934" y="-76.3" font-family="Arial" font-size="14.00">&#45; settings.json</text>
<text text-anchor="middle" x="934" y="-61.3" font-family="Arial" font-size="14.00">&#45; epic&#45;templates/</text>
<text text-anchor="middle" x="934" y="-46.3" font-family="Arial" font-size="14.00">&#45; conventions.md</text>
</g>
<!-- guide&#45;&gt;local_config -->
<g id="edge12" class="edge">
<title>guide&#45;&gt;local_config</title>
<path fill="none" stroke="purple" stroke-dasharray="1,5" d="M647,-277.57C708.53,-261.96 790.38,-234.82 852,-191 869.19,-178.78 884.69,-162.01 897.47,-145.6"/>
<polygon fill="purple" stroke="purple" points="900.28,-147.69 903.52,-137.6 894.7,-143.46 900.28,-147.69"/>
<text text-anchor="middle" x="878.5" y="-217.8" font-family="Arial" font-size="14.00">uses</text>
<text text-anchor="middle" x="878.5" y="-202.8" font-family="Arial" font-size="14.00">project config</text>
</g>
<!-- checklist&#45;&gt;guide -->
<g id="edge10" class="edge">
<title>checklist&#45;&gt;guide</title>
<path fill="none" stroke="black" stroke-dasharray="1,5" d="M493.34,-137.57C509.41,-155.51 525.89,-176.89 537,-199 542.9,-210.75 547.24,-224.09 550.42,-237.03"/>
<polygon fill="black" stroke="black" points="547.02,-237.83 552.64,-246.81 553.84,-236.28 547.02,-237.83"/>
<text text-anchor="middle" x="580" y="-217.8" font-family="Arial" font-size="14.00">references</text>
<text text-anchor="middle" x="580" y="-202.8" font-family="Arial" font-size="14.00">for details</text>
</g>
<!-- viz_guide -->
<g id="node7" class="node">
<title>viz_guide</title>
<path fill="wheat" stroke="black" d="M558.5,-682C558.5,-682 353.5,-682 353.5,-682 347.5,-682 341.5,-676 341.5,-670 341.5,-670 341.5,-595 341.5,-595 341.5,-589 347.5,-583 353.5,-583 353.5,-583 558.5,-583 558.5,-583 564.5,-583 570.5,-589 570.5,-595 570.5,-595 570.5,-670 570.5,-670 570.5,-676 564.5,-682 558.5,-682"/>
<text text-anchor="middle" x="456" y="-666.8" font-family="Arial" font-size="14.00">WORKFLOW&#45;VISUALIZATION.md</text>
<text text-anchor="middle" x="456" y="-635.8" font-family="Arial" font-size="14.00">How to generate diagrams</text>
<text text-anchor="middle" x="456" y="-620.8" font-family="Arial" font-size="14.00">GraphViz usage</text>
<text text-anchor="middle" x="456" y="-605.8" font-family="Arial" font-size="14.00">Editing guide</text>
<text text-anchor="middle" x="456" y="-590.8" font-family="Arial" font-size="14.00">Troubleshooting</text>
</g>
<!-- viz_guide&#45;&gt;dot_file -->
<g id="edge6" class="edge">
<title>viz_guide&#45;&gt;dot_file</title>
<path fill="none" stroke="black" stroke-dasharray="1,5" d="M452.69,-582.8C451.07,-558.96 449.12,-530.27 447.48,-506.12"/>
<polygon fill="black" stroke="black" points="450.96,-505.81 446.79,-496.07 443.98,-506.29 450.96,-505.81"/>
<text text-anchor="middle" x="485" y="-553.8" font-family="Arial" font-size="14.00">explains</text>
<text text-anchor="middle" x="485" y="-538.8" font-family="Arial" font-size="14.00">how to edit</text>
</g>
<!-- viz_guide&#45;&gt;visuals -->
<g id="edge7" class="edge">
<title>viz_guide&#45;&gt;visuals</title>
<path fill="none" stroke="black" stroke-dasharray="1,5" d="M505.95,-582.97C511.51,-577.04 516.97,-570.97 522,-565 535.34,-549.15 541.68,-546.38 549,-527 574.7,-458.98 609.69,-419.74 563,-364 533.72,-329.04 505.25,-360.43 462,-346 458.67,-344.89 455.3,-343.68 451.94,-342.39"/>
<polygon fill="black" stroke="black" points="453.03,-339.05 442.44,-338.57 450.41,-345.55 453.03,-339.05"/>
<text text-anchor="middle" x="633.5" y="-457.8" font-family="Arial" font-size="14.00">explains</text>
<text text-anchor="middle" x="633.5" y="-442.8" font-family="Arial" font-size="14.00">how to generate</text>
</g>
<!-- impl_summary -->
<g id="node8" class="node">
<title>impl_summary</title>
<path fill="lightpink" stroke="black" d="M811,-674.5C811,-674.5 601,-674.5 601,-674.5 595,-674.5 589,-668.5 589,-662.5 589,-662.5 589,-602.5 589,-602.5 589,-596.5 595,-590.5 601,-590.5 601,-590.5 811,-590.5 811,-590.5 817,-590.5 823,-596.5 823,-602.5 823,-602.5 823,-662.5 823,-662.5 823,-668.5 817,-674.5 811,-674.5"/>
<text text-anchor="middle" x="706" y="-659.3" font-family="Arial" font-size="14.00">IMPLEMENTATION&#45;SUMMARY.md</text>
<text text-anchor="middle" x="706" y="-628.3" font-family="Arial" font-size="14.00">SSE implementation recap</text>
<text text-anchor="middle" x="706" y="-613.3" font-family="Arial" font-size="14.00">Session&#45;specific summary</text>
<text text-anchor="middle" x="706" y="-598.3" font-family="Arial" font-size="14.00">Example of session output</text>
</g>
<!-- impl_summary&#45;&gt;guide -->
<g id="edge13" class="edge">
<title>impl_summary&#45;&gt;guide</title>
<path fill="none" stroke="black" stroke-dasharray="1,5" d="M710.86,-590.25C714.4,-544.23 714.43,-468.8 686,-412 674.9,-389.82 657.51,-369.91 639.13,-353.17"/>
<polygon fill="black" stroke="black" points="641.02,-350.17 631.2,-346.19 636.39,-355.43 641.02,-350.17"/>
<text text-anchor="middle" x="750.5" y="-457.8" font-family="Arial" font-size="14.00">real example</text>
<text text-anchor="middle" x="750.5" y="-442.8" font-family="Arial" font-size="14.00">of session</text>
</g>
<!-- sse_doc -->
<g id="node9" class="node">
<title>sse_doc</title>
<path fill="lightcoral" stroke="black" d="M1021,-674.5C1021,-674.5 853,-674.5 853,-674.5 847,-674.5 841,-668.5 841,-662.5 841,-662.5 841,-602.5 841,-602.5 841,-596.5 847,-590.5 853,-590.5 853,-590.5 1021,-590.5 1021,-590.5 1027,-590.5 1033,-596.5 1033,-602.5 1033,-602.5 1033,-662.5 1033,-662.5 1033,-668.5 1027,-674.5 1021,-674.5"/>
<text text-anchor="middle" x="937" y="-659.3" font-family="Arial" font-size="14.00">SSE&#45;IMPLEMENTATION.md</text>
<text text-anchor="middle" x="937" y="-628.3" font-family="Arial" font-size="14.00">Technical deep&#45;dive</text>
<text text-anchor="middle" x="937" y="-613.3" font-family="Arial" font-size="14.00">SSE architecture</text>
<text text-anchor="middle" x="937" y="-598.3" font-family="Arial" font-size="14.00">Backend requirements</text>
</g>
<!-- sse_doc&#45;&gt;guide -->
<g id="edge14" class="edge">
<title>sse_doc&#45;&gt;guide</title>
<path fill="none" stroke="black" stroke-dasharray="1,5" d="M918.64,-590.31C895.48,-542.24 851.61,-462.88 794,-412 754.3,-376.94 701.96,-350.05 656.76,-331.17"/>
<polygon fill="black" stroke="black" points="657.81,-327.82 647.23,-327.26 655.15,-334.3 657.81,-327.82"/>
<text text-anchor="middle" x="940.5" y="-457.8" font-family="Arial" font-size="14.00">technical</text>
<text text-anchor="middle" x="940.5" y="-442.8" font-family="Arial" font-size="14.00">deep&#45;dive example</text>
</g>
<!-- journey1 -->
<g id="node12" class="node">
<title>journey1</title>
<polygon fill="lightyellow" stroke="black" points="2059.5,-651.5 1860.5,-651.5 1860.5,-613.5 2065.5,-613.5 2065.5,-645.5 2059.5,-651.5"/>
<polyline fill="none" stroke="black" points="2059.5,-651.5 2059.5,-645.5 "/>
<polyline fill="none" stroke="black" points="2065.5,-645.5 2059.5,-645.5 "/>
<text text-anchor="middle" x="1963" y="-636.3" font-family="Arial" font-size="14.00">Visual Learner:</text>
<text text-anchor="middle" x="1963" y="-621.3" font-family="Arial" font-size="14.00">README → WORKFLOW.svg</text>
</g>
<!-- journey2 -->
<g id="node13" class="node">
<title>journey2</title>
<polygon fill="lightyellow" stroke="black" points="1836.5,-651.5 1591.5,-651.5 1591.5,-613.5 1842.5,-613.5 1842.5,-645.5 1836.5,-651.5"/>
<polyline fill="none" stroke="black" points="1836.5,-651.5 1836.5,-645.5 "/>
<polyline fill="none" stroke="black" points="1842.5,-645.5 1836.5,-645.5 "/>
<text text-anchor="middle" x="1717" y="-636.3" font-family="Arial" font-size="14.00">Detail Seeker:</text>
<text text-anchor="middle" x="1717" y="-621.3" font-family="Arial" font-size="14.00">README → WORKFLOW&#45;GUIDE.md</text>
</g>
<!-- journey3 -->
<g id="node14" class="node">
<title>journey3</title>
<polygon fill="lightyellow" stroke="black" points="1567,-651.5 1357,-651.5 1357,-613.5 1573,-613.5 1573,-645.5 1567,-651.5"/>
<polyline fill="none" stroke="black" points="1567,-651.5 1567,-645.5 "/>
<polyline fill="none" stroke="black" points="1573,-645.5 1567,-645.5 "/>
<text text-anchor="middle" x="1465" y="-636.3" font-family="Arial" font-size="14.00">Daily Developer:</text>
<text text-anchor="middle" x="1465" y="-621.3" font-family="Arial" font-size="14.00">TODO&#45;MASTER → CHECKLIST</text>
</g>
<!-- journey4 -->
<g id="node15" class="node">
<title>journey4</title>
<polygon fill="lightyellow" stroke="black" points="1333,-651.5 1057,-651.5 1057,-613.5 1339,-613.5 1339,-645.5 1333,-651.5"/>
<polyline fill="none" stroke="black" points="1333,-651.5 1333,-645.5 "/>
<polyline fill="none" stroke="black" points="1339,-645.5 1333,-645.5 "/>
<text text-anchor="middle" x="1198" y="-636.3" font-family="Arial" font-size="14.00">Workflow Editor:</text>
<text text-anchor="middle" x="1198" y="-621.3" font-family="Arial" font-size="14.00">WORKFLOW.dot → VISUALIZATION guide</text>
</g>
<!-- leg_green -->
<g id="node16" class="node">
<title>leg_green</title>
<path fill="green" stroke="green" stroke-width="2" d="M2666.5,-650.5C2666.5,-650.5 2595.5,-650.5 2595.5,-650.5 2589.5,-650.5 2583.5,-644.5 2583.5,-638.5 2583.5,-638.5 2583.5,-626.5 2583.5,-626.5 2583.5,-620.5 2589.5,-614.5 2595.5,-614.5 2595.5,-614.5 2666.5,-614.5 2666.5,-614.5 2672.5,-614.5 2678.5,-620.5 2678.5,-626.5 2678.5,-626.5 2678.5,-638.5 2678.5,-638.5 2678.5,-644.5 2672.5,-650.5 2666.5,-650.5"/>
<text text-anchor="middle" x="2631" y="-628.8" font-family="Arial" font-size="14.00">Primary Path</text>
</g>
<!-- leg_blue -->
<g id="node17" class="node">
<title>leg_blue</title>
<path fill="blue" stroke="blue" d="M2553.5,-650.5C2553.5,-650.5 2464.5,-650.5 2464.5,-650.5 2458.5,-650.5 2452.5,-644.5 2452.5,-638.5 2452.5,-638.5 2452.5,-626.5 2452.5,-626.5 2452.5,-620.5 2458.5,-614.5 2464.5,-614.5 2464.5,-614.5 2553.5,-614.5 2553.5,-614.5 2559.5,-614.5 2565.5,-620.5 2565.5,-626.5 2565.5,-626.5 2565.5,-638.5 2565.5,-638.5 2565.5,-644.5 2559.5,-650.5 2553.5,-650.5"/>
<text text-anchor="middle" x="2509" y="-628.8" font-family="Arial" font-size="14.00">Secondary Path</text>
</g>
<!-- leg_orange -->
<g id="node18" class="node">
<title>leg_orange</title>
<polygon fill="none" stroke="orange" stroke-dasharray="5,2" points="2434,-650.5 2350,-650.5 2350,-614.5 2434,-614.5 2434,-650.5"/>
<text text-anchor="middle" x="2392" y="-628.8" font-family="Arial" font-size="14.00">Generation</text>
</g>
<!-- leg_dotted -->
<g id="node19" class="node">
<title>leg_dotted</title>
<polygon fill="none" stroke="black" stroke-dasharray="1,5" points="2332.5,-650.5 2253.5,-650.5 2253.5,-614.5 2332.5,-614.5 2332.5,-650.5"/>
<text text-anchor="middle" x="2293" y="-628.8" font-family="Arial" font-size="14.00">Reference</text>
</g>
<!-- leg_purple -->
<g id="node20" class="node">
<title>leg_purple</title>
<polygon fill="none" stroke="purple" stroke-dasharray="1,5" points="2235,-650.5 2089,-650.5 2089,-614.5 2235,-614.5 2235,-650.5"/>
<text text-anchor="middle" x="2162" y="-628.8" font-family="Arial" font-size="14.00">External Dependency</text>
</g>
<!-- rec1 -->
<g id="node21" class="node">
<title>rec1</title>
<polygon fill="lightgreen" stroke="black" points="3909.5,-651.5 3550.5,-651.5 3550.5,-613.5 3915.5,-613.5 3915.5,-645.5 3909.5,-651.5"/>
<polyline fill="none" stroke="black" points="3909.5,-651.5 3909.5,-645.5 "/>
<polyline fill="none" stroke="black" points="3915.5,-645.5 3909.5,-645.5 "/>
<text text-anchor="middle" x="3733" y="-636.3" font-family="Arial" font-size="14.00">New to project?</text>
<text text-anchor="middle" x="3733" y="-621.3" font-family="Arial" font-size="14.00">Start: README → TODO&#45;MASTER → WORKFLOW.svg</text>
</g>
<!-- rec2 -->
<g id="node22" class="node">
<title>rec2</title>
<polygon fill="lightgreen" stroke="black" points="3526,-651.5 3280,-651.5 3280,-613.5 3532,-613.5 3532,-645.5 3526,-651.5"/>
<polyline fill="none" stroke="black" points="3526,-651.5 3526,-645.5 "/>
<polyline fill="none" stroke="black" points="3532,-645.5 3526,-645.5 "/>
<text text-anchor="middle" x="3406" y="-636.3" font-family="Arial" font-size="14.00">Starting work session?</text>
<text text-anchor="middle" x="3406" y="-621.3" font-family="Arial" font-size="14.00">Start: TODO&#45;MASTER → CHECKLIST</text>
</g>
<!-- rec3 -->
<g id="node23" class="node">
<title>rec3</title>
<polygon fill="lightcyan" stroke="black" points="3255.5,-651.5 3058.5,-651.5 3058.5,-613.5 3261.5,-613.5 3261.5,-645.5 3255.5,-651.5"/>
<polyline fill="none" stroke="black" points="3255.5,-651.5 3255.5,-645.5 "/>
<polyline fill="none" stroke="black" points="3261.5,-645.5 3255.5,-645.5 "/>
<text text-anchor="middle" x="3160" y="-636.3" font-family="Arial" font-size="14.00">Need detailed explanation?</text>
<text text-anchor="middle" x="3160" y="-621.3" font-family="Arial" font-size="14.00">Use: WORKFLOW&#45;GUIDE.md</text>
</g>
<!-- rec4 -->
<g id="node24" class="node">
<title>rec4</title>
<polygon fill="lightpink" stroke="black" points="3035,-651.5 2703,-651.5 2703,-613.5 3041,-613.5 3041,-645.5 3035,-651.5"/>
<polyline fill="none" stroke="black" points="3035,-651.5 3035,-645.5 "/>
<polyline fill="none" stroke="black" points="3041,-645.5 3035,-645.5 "/>
<text text-anchor="middle" x="2872" y="-636.3" font-family="Arial" font-size="14.00">Want to modify workflow?</text>
<text text-anchor="middle" x="2872" y="-621.3" font-family="Arial" font-size="14.00">Edit: WORKFLOW.dot, Read: VISUALIZATION guide</text>
</g>
</g>
</svg>
